<svg xmlns="http://www.w3.org/2000/svg" viewBox="0 0 512 512"><title>rsq-icon-original-bloglovin-b</title><rect width="512" height="512" rx="113" ry="113" style="fill:#262526"/><path d="M257.07,362.51c-1.81,0-3.63,0-5.43-.07A23.05,23.05,0,0,1,229,339.09c.11-18,.38-36.06.57-54.1,0-1,0-2-.05-3.09-1.15-.05-2.12-.12-3.1-.12l-52.73-.59c-14.66-.18-24.36-10.25-24.25-24.88,0-6,.4-11.79,3.92-16.9A22.93,22.93,0,0,1,173.4,229c17.77.14,35.52.38,53.27.61a27.91,27.91,0,0,1,3.54.42c.09-10.89.19-21.21.28-31.51.09-8.24.13-16.49.28-24.73.25-14.9,10.12-24.37,25.06-24.31,5.7,0,11.26.36,16.18,3.62,7.57,5,11.07,12.15,10.93,21.18-.19,13.51-.3,27-.47,40.51-.07,5-.2,10.09-.3,15.31,1.4.07,2.38.13,3.34.13,16.76.2,33.54.92,50.29.42,16.59-.49,28,11.26,26.71,27.26-.45,5.44-1.07,10.62-4.34,15.14a22.83,22.83,0,0,1-19.76,10q-26.77-.27-53.55-.62a21.48,21.48,0,0,1-3.22-.58c-.09,10.54-.16,20.31-.25,30.1-.08,9.06-.14,18.11-.32,27.17C280.83,352.8,270.75,362.58,257.07,362.51Z" style="fill:#fff;fill-rule:evenodd"/></svg>