<svg xmlns="http://www.w3.org/2000/svg" viewBox="0 0 512 512"><title>rsq-icon-original-search</title><rect width="512" height="512" rx="113" ry="113" style="fill:#edeced"/><path d="M366,335.22c-4.94-4.75-9.84-9.52-14.77-14.27q-22.55-21.86-45.12-43.72a1.16,1.16,0,0,1-.22-1.71,88.71,88.71,0,0,0,11.74-59c-2.93-20.5-11.8-38.11-27-52.17-22.4-20.75-49-28.28-78.89-22.7-24.5,4.57-43.74,17.71-57.48,38.51-12,18.18-16.47,38.31-14.06,60a82.38,82.38,0,0,0,8.65,29.22c15.07,28.88,38.87,45.27,71.19,49.06A86,86,0,0,0,263.77,312c3.88-1.63,7.62-3.64,11.52-5.5.05.06.24.2.41.38,4.53,4.37,9.07,8.79,13.6,13.19q23.21,22.59,46.39,45.19c4.14,4,8.91,6.58,14.75,6.81a21,21,0,0,0,20.25-13A21.66,21.66,0,0,0,366,335.22ZM229.94,283c-29.51.43-53.89-23.62-54.44-52.54-.58-30,24-54.4,53-54.69,29.45-.29,54.21,24,54.14,53.58C282.78,258.47,258.81,282.55,229.94,283Z" style="fill:#427cbe;fill-rule:evenodd"/></svg>