<svg xmlns="http://www.w3.org/2000/svg" viewBox="0 0 512 512"><title>rsq-icon-original-wordpress</title><rect width="512" height="512" rx="113" ry="113" style="fill:#4b4c4c"/><path d="M284.73,111.2c-5.74-1.09-11.57-1.61-17.32-2.43-1-.15-1.94-.37-2.89-.58H246.69c-5.65.78-11.34,1.43-17,2.39-57.43,9.83-105,54.34-118.32,111-1.81,7.67-2.52,15.55-3.76,23.37-.17,1-.4,1.91-.6,2.86v17.85c.79,5.65,1.45,11.35,2.42,17C119.23,340,163.67,387.42,220.31,401A148.71,148.71,0,0,0,401,287.41C418.19,207.16,365.23,126.82,284.73,111.2ZM193.91,375.4a28.56,28.56,0,0,1-3.53-1.48,49.53,49.53,0,0,1-4.8-2.63c-1.25-.75-2.53-1.59-3.84-2.51-.44-.3-.87-.63-1.31-.95-1.31-.95-2.67-2-4-3.08s-2.75-2.19-4.11-3.39L171,360.15l-1.38-1.24c-1.45-1.34-2.93-2.71-4.39-4.17-11.72-11.52-23-25.87-29.32-38.58-18.85-37.83-17.33-81-2.19-113.65C155,260.73,176,318.43,197.12,376.24A19.22,19.22,0,0,1,193.91,375.4Zm24,9.25q19.88-57.59,39.68-115.28h.8Q279,326,299.74,382.69C274.73,392.38,241.5,392.75,217.88,384.65Zm104-47.85c-15.9-47.35-31.84-94.73-48-142.6l11.92-1.08c1.17-.11,2.36-.16,3.53-.38,3.38-.67,5.06-2.86,4.75-6.05-.33-3-2.44-4.83-5.8-4.7-8.4.39-16.8,1.28-25.21,1.27-13.54,0-27.11-.63-40.65-1-1.46-.06-3-.26-4.45-.29-3.64-.06-5.79,1.72-6.14,5-.33,3.14,1.58,5.36,5.29,5.83s7.28.76,10.93,1a3.52,3.52,0,0,1,3.67,2.66c6.35,17.57,12.8,35.11,19.11,52.69a5.91,5.91,0,0,1,.17,3.66q-13.91,42.1-28,84.15c-.09.26-.23.53-.77,1.72C206,290.19,189.94,242.44,173.73,194.2c4.19-.4,8.1-.73,12-1.11a29,29,0,0,0,3.87-.45c3.15-.69,4.59-2.85,4.26-6.08-.34-2.9-2.3-4.71-5.53-4.58-9,.42-18,1.08-27,1.42-5.49.21-11,.05-17,.05,43-67.8,140.68-81.28,201-25.5-1.53.16-2.89.22-4.15.45-12.47,2-21,14.09-19.19,26.79a47,47,0,0,0,6.24,16.86c3.39,5.92,7,11.71,10.18,17.75,7.49,14.44,9.83,29.72,5.4,45.44-6.77,23.9-13.93,47.61-20.92,71.42C322.52,336.74,322.23,336.74,321.92,336.8Zm1.15,34.78c.37-1.3.62-2.28,1-3.28q19.5-56.33,39.05-112.64c3.65-10.46,7.78-20.8,9-31.87.9-8,.93-16.16,1.25-24.24.08-1.79-.19-3.56-.28-5.32C408.59,258.66,382.19,339.26,323.07,371.57Z" style="fill:#fff"/></svg>