<svg xmlns="http://www.w3.org/2000/svg" viewBox="0 0 512 512"><title>rsq-icon-original-vimeo</title><rect width="512" height="512" rx="113" ry="113" style="fill:#22b1e7"/><path d="M398.23,232.07c-12.88,26.36-29.63,50.39-47.45,73.58C337.47,323.06,323.49,340,307.68,355c-14.07,13.39-28.88,25.7-47.3,32.56-8.88,3.34-18,5.52-27.54,3-10-2.59-17-9.38-22.77-17.41-10.38-14.39-16.24-30.72-20.84-47.71-8-30.13-15.73-60.18-24.85-90-3.35-11.12-7.53-22.1-14.9-31.39a20.36,20.36,0,0,0-5.86-5.18,8.78,8.78,0,0,0-9.46-.17,163.08,163.08,0,0,0-17.67,11.39c-2.25,1.68-3.59,1.76-5.35-.67-3.52-4.94-7.29-9.72-11.13-14.49-1.26-1.5-1.34-2.34.25-3.68,11.47-10.13,23-20.26,34.4-30.47,10.8-9.79,21.6-19.41,33.91-27.37a76.85,76.85,0,0,1,11.79-6.53c18.25-7.78,36.41-1.5,46,16,5.78,10.55,8.29,22.09,10.22,33.9,4.52,28,8.37,56.17,15.74,83.62,2.34,8.71,5,17.33,9.7,25.2a22.66,22.66,0,0,0,3.86,5.11q5.13,4.76,11,1c6.53-4.1,11.13-10,15.49-16.07,11.13-15.82,21.6-32,27.87-50.39a48.42,48.42,0,0,0,1.93-20.42c-.93-9.45-8.12-15.49-18.41-15.9a59.79,59.79,0,0,0-22.35,3.6c-.83.25-1.75,1.26-2.59.25-.51-.75-.09-1.58.16-2.43,5.86-17.41,13.73-33.73,26.7-47.12,12.3-12.64,27.54-19.92,45.19-22.19a83.58,83.58,0,0,1,11.22-.75c12,0,22.35,1.51,31.47,7.7,11.13,7.62,15.73,19,17.9,31.64C416.06,185.45,409.45,209.13,398.23,232.07Z" style="fill:#fff;fill-rule:evenodd"/></svg>