<svg xmlns="http://www.w3.org/2000/svg" viewBox="0 0 512 512"><title>rsq-icon-original-soundcloud</title><rect width="512" height="512" rx="113" ry="113" style="fill:#f16630"/><path d="M69.9,300c-.77,5.21-1.53,10.45-2.45,15.64-.17.92-1,2.6-1.67,2.6s-1.5-1.62-1.63-2.52c-.84-4.87-2.85-15.66-2.85-17.4v-5.58c0-1.18,1.58-10.38,2.57-15.52.3-1.53,1-4.36,1.91-4.36s1.66,2.71,1.91,4.18c1.08,6,2,12,2.8,18.08A18.26,18.26,0,0,1,69.9,300Z" style="fill:#fff;fill-rule:evenodd"/><path d="M404.9,340.07c-23.74.52-47.48.17-71.23.17q-30.47,0-61,0c-6.17,0-7.74-1.54-7.74-7.74q0-73.86,0-147.75c0-5.14.86-6.1,5.69-7.86a84.14,84.14,0,0,1,51.9-2.26,84.49,84.49,0,0,1,61.14,70.22c.14,1.1.42,2.17.73,3.68a48,48,0,0,1,65.62,36.41C454.75,313.14,433.54,339.43,404.9,340.07Z" style="fill:#fff;fill-rule:evenodd"/><path d="M261.5,290.4q.12,20.15-1,40.33c-.07,1.43-.07,2.9-.27,4.34-.43,3.23-2.37,5.06-5.24,5s-4.84-2-5.15-5.2c-.31-3-.54-6-.62-9q-.76-36.67-1.44-73.31h0c.41-21,1.61-42.08,2-63.11,0-2.64.58-5.32,3.34-6.07a6.56,6.56,0,0,1,5.29,1c1.23,1.1,1.75,3.43,1.84,5.27.34,7.44.4,14.92.57,22.38C261.46,238.19,261.35,264.31,261.5,290.4Z" style="fill:#fff;fill-rule:evenodd"/><path d="M245.06,294.06c0,13.86-.78,27.77-1.55,41.63a4.78,4.78,0,0,1-9.55.2c-.46-4.95-.72-9.92-.86-14.89-.48-15.12-.87-30.22-1.28-45.36h0c.49-25.5,1.47-51,2-76.48,0-.41,0-.84,0-1.24.27-3.72,2.24-6,5.12-5.87,2.64.09,4.54,2.51,4.62,6,.28,12,.49,24,.76,36.06C244.77,254.12,245.13,274,245.06,294.06Z" style="fill:#fff;fill-rule:evenodd"/><path d="M226.8,335.44c-.24,2.7-1.35,4.56-4.29,4.75-2.71.17-4.47-1.38-4.65-4.59-1.14-20.27-2.66-40.52-1.76-60.88.87-19.36,1.06-38.72,1.55-58.1,0-1.35.13-2.7.24-4,.23-2.63,1.65-4.21,4.33-4.38,2.44-.15,4.31,1.72,4.52,4.55.26,3.63.38,7.25.48,10.88.34,12.11.66,24.24,1,38.32A517.66,517.66,0,0,1,226.8,335.44Z" style="fill:#fff;fill-rule:evenodd"/><path d="M212.34,300.89c-.31,11.58-1.45,23.16-2.19,34.74-.18,2.62-1.27,4.44-4.09,4.47s-4.2-1.88-4.35-4.61c-.58-10.57-1.59-21.11-1.6-31.68,0-20.39.48-40.81.82-61.21.17-10.25.48-20.51.73-30.78a19.07,19.07,0,0,1,.12-2.16c.33-2.65,2.18-4.54,4.42-4.28,2.56.31,3.78,1.93,3.88,4.43C210.4,217,212.73,286.79,212.34,300.89Z" style="fill:#fff;fill-rule:evenodd"/><path d="M193.77,336c-.13,2.46-1.33,4.2-4,4.2s-3.7-2-3.87-4.36c-1.53-21.61-2.87-43.21-1.82-64.91.6-12.61.72-25.24,1.07-37.9q.34-11.95.71-23.91a9.2,9.2,0,0,1,.07-1.24c.29-2.37,1.17-4.27,4-4.21s3.72,1.92,3.84,4.35c.21,4.24.47,8.49.5,12.76.07,11.49,1.32,50.87,1.77,59C197.05,298.59,194.73,317.23,193.77,336Z" style="fill:#fff;fill-rule:evenodd"/><path d="M178.7,317.78c-.36,5.67-.75,11.35-1.13,17.05,0,.5,0,1-.12,1.54-.34,2.18-1.34,3.8-3.78,3.72s-3.37-1.69-3.5-3.94c-.28-4.67-.6-9.33-.87-14-.71-11.67-.79-23.39-1.5-35.07h0q1.19-37.59,2.38-75.19c0-1.21.06-2.77.76-3.51a5,5,0,0,1,3.7-1.38c2.24.25,2.76,2.24,2.82,4.2.24,7.57.43,15.15.69,22.69.68,19.68,1.63,39.35,2,59C180.31,301.22,179.24,309.51,178.7,317.78Z" style="fill:#fff;fill-rule:evenodd"/><path d="M160.83,337c-.13,2-1.27,3.7-3.21,3.37a4.83,4.83,0,0,1-3.11-3.13,52.88,52.88,0,0,1-.82-9c-.68-12.5-2-25-1.86-37.52.32-23.83,1.54-47.64,2.39-71.44,0-.63.08-1.24.12-1.86.15-2.18,1.18-3.65,3.45-3.54,2.12.13,3,1.58,3,3.63.11,3.32.28,6.63.41,9.94.71,17.08,1.41,34.16,2.2,53.16C165.41,298.29,161.87,317.61,160.83,337Z" style="fill:#fff;fill-rule:evenodd"/><path d="M147.93,289.55c0,7.95-.46,15.9-1,23.83-.46,7.45-1.19,14.87-1.89,22.29a7.2,7.2,0,0,1-1.29,3.66,2.67,2.67,0,0,1-2.7.46,5.15,5.15,0,0,1-1.91-3.19c-.76-8.24-1.15-16.51-2-24.75-2.06-20.1.26-40.1,1.14-60.13.25-6,.47-12,.77-18a8.53,8.53,0,0,1,.54-3.32,3.29,3.29,0,0,1,2.24-1.61,3.4,3.4,0,0,1,2.46,1.36,6,6,0,0,1,.73,3q1.07,19.21,2.07,38.43H147C147.36,277.56,148,283.55,147.93,289.55Z" style="fill:#fff;fill-rule:evenodd"/><path d="M132.65,295.78c0,.78-1.7,19-2.55,28.43-.35,3.89-.7,7.81-1,11.75-.13,1.92-.57,3.79-2.78,3.79s-2.6-2.05-2.74-3.85c-.68-8.87-1-17.8-2-26.64-2-17.27,1.3-35.35,2.1-52.46,0-.81,1.4-3.06,2.53-3.06s2.56,2,2.75,3.11c.62,3.87.75,7.82,1.12,11.73C130.92,277.65,132.65,295,132.65,295.78Z" style="fill:#fff;fill-rule:evenodd"/><path d="M117,295.72c0,3.28-2.1,21.66-3.14,32.46-.28,2.79-.41,5.61-.94,8.33-.18.92-1.21,2.42-2.15,2.42s-2-1.63-2.1-2.51c-1.84-21.52-5-43-1.54-64.7.92-5.59.86-11.36,1.5-17,.13-1.24,1.17-3.52,2.13-3.52s2.14,2.2,2.26,3.43C114.45,268.32,117,292.45,117,295.72Z" style="fill:#fff;fill-rule:evenodd"/><path d="M101.42,295.62c0,4-1.11,10.94-1.73,17-.74,7.1-1.5,14.18-2.26,21.29a6.87,6.87,0,0,1-.54,2.4,2.27,2.27,0,0,1-1.6,1.11,2.14,2.14,0,0,1-1.48-1.3,32.74,32.74,0,0,1-.76-4.9c-1-10.81-2.31-21.61-2.84-32.46-.32-6.25.56-12.58,1.06-18.86q1-12.21,2.3-24.41c.1-1,.89-2.93,1.7-2.93s1.93,1.91,2,3C98.73,268.49,101.42,291.62,101.42,295.62Z" style="fill:#fff;fill-rule:evenodd"/><path d="M83.31,317c-.44,3.68-.87,7.4-1.49,11-.2,1.13-.86,3.23-1.59,3.23s-1.79-2.16-1.94-3.32c-1-7.9-1.82-15.84-2.68-23.74-.31-2.87-.61-5.74-.92-8.76,1-9,2-18.19,3.08-27.32.25-2.25.36-4.52.76-6.79.13-.7.8-1.95,1.55-1.95s1.55,1.21,1.64,1.91c1.48,11.38,3.45,22.72,4,34.18C86.05,302.63,84.21,309.88,83.31,317Z" style="fill:#fff;fill-rule:evenodd"/></svg>