<svg xmlns="http://www.w3.org/2000/svg" viewBox="0 0 512 512"><title>rsq-icon-original-share</title><rect width="512" height="512" rx="113" ry="113" style="fill:#edeced"/><path d="M372.36,321.22c.25,5.25.73,10.66-.23,15.75a43.38,43.38,0,0,1-14.44,24.86c-11.3,9.9-24.48,12.83-38.79,10.36a41.63,41.63,0,0,1-24.4-13.92c-7.72-8.67-11.82-18.6-11.58-30.22a3,3,0,0,0-2-3.25c-11.21-5.53-22.36-11.18-33.54-16.77q-17.32-8.68-34.69-17.29c-7.37,6.44-16.11,9.49-25.56,10.33a42.87,42.87,0,0,1-22.29-4.15c-12.23-5.8-20.24-15.34-24.24-28.22-.65-2.09-1.09-4.24-1.62-6.38V249.54c.16-.76.32-1.54.5-2.3,2.56-10.9,7.73-20.21,16.77-27,9.7-7.32,20.58-10.53,32.82-9.11a44.72,44.72,0,0,1,23.71,10q34-17,67.86-33.88a3.44,3.44,0,0,0,2.28-3.78,39.05,39.05,0,0,1,4.19-19A44.19,44.19,0,0,1,298,150.07a42,42,0,0,1,16.68-9.26c2.32-.64,4.65-1.21,7-1.82H334c1,.18,2,.33,2.95.57,9.69,2.46,18.14,6.9,24.85,14.6a43.26,43.26,0,0,1,10.91,24.76A45.61,45.61,0,0,1,370.17,200a45.11,45.11,0,0,1-21,23.88c-8.82,4.87-18.39,6.11-28.35,4.67A42.43,42.43,0,0,1,300.72,220a2.73,2.73,0,0,0-3.36-.4c-21.66,10.92-43.3,21.82-65.07,32.5-2.65,1.3-3.9,2.65-3.29,5.52a1.74,1.74,0,0,0,.16.41q34.14,17.06,68.24,34.15a2.64,2.64,0,0,0,3.33-.44,41.62,41.62,0,0,1,22.14-8.8,45.16,45.16,0,0,1,43.21,20.75C369.5,309.06,372,314.83,372.36,321.22Z" style="fill:#427cbe"/></svg>