<svg xmlns="http://www.w3.org/2000/svg" viewBox="0 0 512 512"><title>rsq-icon-original-app-store</title><rect width="512" height="512" rx="113" ry="113" style="fill:#427cbe"/><path d="M256.39,108.59c-75.13,0-147.58,56.61-147.73,147.3-.14,88.45,69.57,147.41,147.45,147.53,78,.13,147.55-60.6,147.22-147.68C403,164.92,329.44,108.38,256.39,108.59Zm-2.7,274.55c-68.37-.05-124.4-57.32-124.4-127.15-1.2-68.93,56.94-128.14,128.48-127.18,69.36.95,125.51,57.42,125.47,128.05S326.22,383.16,253.69,383.14Z" style="fill:#fff;fill-rule:evenodd"/><polygon points="295.37 273.49 220.43 273.49 238.9 241.83 278.4 242 295.37 273.49" style="fill:#fff;fill-rule:evenodd"/><path d="M239.44,225.77C225.52,250,211.73,273.88,198,297.85c-1.31.11-1.64.24-1.85.14-17.86-7.77-17.78-7.75-8.21-24.32C199,254.43,210,235.14,221.4,215.27,227.38,218.75,233,222,239.44,225.77Z" style="fill:#fff;fill-rule:evenodd"/><path d="M309.76,252.1c-4.66,2.54-8.89,4.87-14,7.7-19.31-34.13-34.32-69.41-49.63-104.49l4.42-2.29C271.24,185,291.9,217.14,309.76,252.1Z" style="fill:#fff;fill-rule:evenodd"/><polygon points="346.76 241.81 346.9 273.33 328.23 273.5 312.62 241.81 346.76 241.81" style="fill:#fff;fill-rule:evenodd"/><polygon points="197.97 241.85 179.07 273.33 166.9 273.17 166.74 241.85 197.97 241.85" style="fill:#fff;fill-rule:evenodd"/><path d="M339.67,325.75c-5,2.77-9,1.05-11.21-3.66-4.92-10.45-9.34-21.16-14.12-32.11,3.47-1.94,6.38-3.55,9.93-5.53,6.47,10,12.84,19.72,19,29.5C346.55,319.1,344.58,323,339.67,325.75Z" style="fill:#fff;fill-rule:evenodd"/><path d="M251.89,204.32c-3.23,5.62-6,10.55-9.19,16l-18.23-10.57c3.18-5.56,6-10.46,9.17-16C239.85,197.34,245.64,200.71,251.89,204.32Z" style="fill:#fff;fill-rule:evenodd"/><path d="M321.61,277.51c-3.84,2.14-7.23,4-11.32,6.33-3.7-6.12-7.17-11.88-11.05-18.28l13.09-7.37C315.39,264.53,318.23,270.44,321.61,277.51Z" style="fill:#fff;fill-rule:evenodd"/><path d="M191.21,303.32c-6.58,6.69-12.9,13.15-20,20.33,2.23-9.82,4.23-18.62,6.41-28.32C182.83,298.36,187.09,300.9,191.21,303.32Z" style="fill:#fff;fill-rule:evenodd"/><path d="M253.44,198.12c-5.42-3.22-10.3-6.13-15.59-9.29,3.59-5,7.4-6.62,12.3-3.23C254.34,188.48,257.49,191.83,253.44,198.12Z" style="fill:#fff;fill-rule:evenodd"/></svg>