<svg xmlns="http://www.w3.org/2000/svg" viewBox="0 0 512 512"><title>rsq-icon-original-medium</title><rect width="512" height="512" rx="113" ry="113" style="fill:#00aa6c"/><path d="M212.82,352.74a39.51,39.51,0,0,1-.1,4.62c-.85,7.31-5.29,10-12,6.85-7.67-3.55-15.14-7.52-22.7-11.31-14-7-28-14.09-42.08-21-6.33-3.11-9.37-7.87-9.35-15q.11-80,0-160c0-9.12,3.26-11.33,11.38-7.31,24,11.84,47.86,24,71.87,35.81,2.88,1.44,3,3.4,3,6q-.07,40.94,0,81.85Z" style="fill:#fff;fill-rule:evenodd"/><path d="M385.16,187.36c-26.62,43.27-53.34,86.68-80.53,130.91-6.66-10.81-12.71-20.62-18.76-30.45-11.86-19.27-23.66-38.56-35.62-57.76-1.5-2.41-1.65-4.12-.12-6.57C264.83,199.8,279.4,176,294,152.3c3.63-5.87,7.65-7.25,13.61-4.29q38.24,19,76.39,38.2A9.83,9.83,0,0,1,385.16,187.36Z" style="fill:#fff;fill-rule:evenodd"/><path d="M385.42,211.7V353.16a38.67,38.67,0,0,1-.31,5.52,6.87,6.87,0,0,1-8.18,6.15,19.43,19.43,0,0,1-5.7-1.76q-30.79-15.25-61.53-30.63c-.53-.28-1-.68-2-1.36q38.53-62.54,76.58-124.38l.93.22C385.28,208.53,385.42,210.12,385.42,211.7Z" style="fill:#fff;fill-rule:evenodd"/><path d="M298.1,325.4c-.19.25-.38.5-.57.77-8-3.93-15.92-7.82-23.83-11.77-16.11-8-32.2-16-48.21-24.2-1.45-.72-3.18-2.74-3.2-4.16-.19-27.23-.13-54.5.81-82.21Z" style="fill:#fff;fill-rule:evenodd"/></svg>