<svg xmlns="http://www.w3.org/2000/svg" viewBox="0 0 512 512"><title>rsq-icon-original-lastfm</title><rect width="512" height="512" rx="113" ry="113" style="fill:#d52027"/><path d="M435.56,301.07c-5.17,38.17-36.28,63.53-74.73,60.82-22.61-1.59-41.36-12-53.23-31-11-17.59-19.64-36.71-28.38-55.57-7.72-16.62-14.22-33.83-21.15-50.82A81.12,81.12,0,0,0,103,241c-8,46.6,22.76,90.1,69.25,96.13,33.25,4.34,59.92-8.12,79.53-35.44.91-1.29,1.77-2.58,3.05-4.42,4.79,7.6,9,14.56,13.54,21.37,1.45,2.18.43,3.36-.81,4.89-16.73,20.43-38,33.38-63.93,38.35-53.47,10.23-106-21.25-122.69-73.21C61,226.47,101,160.74,165.34,149.8c51.33-8.73,100.29,19.94,119.41,68.42,11.53,29.24,24.4,58,37.82,86.45,16.31,34.55,53.54,31.72,73.74,16.37,9.82-7.46,14.46-17.4,12.46-29.83-1.09-6.68-5.14-11.66-10.36-15.7-9.45-7.33-20.55-10.84-32-13.27-11.84-2.48-22.92-6.54-32.94-13.48a55.17,55.17,0,0,1-22.65-58.31c5.14-22,23.77-38.62,46.65-41.56s45.7,9.1,55.76,29.65c.3.62.53,1.29.93,2.28-7.56,3.78-14.95,7.49-22.59,11.34a29.27,29.27,0,0,1-1.69-2.41c-7.19-12.54-20.55-18.12-33.91-14.2a29.23,29.23,0,0,0-20.62,29.65c.69,13.27,11.21,25.07,25.07,27.05,14.09,2,27.77,5.13,40.54,11.58,10.29,5.18,19.37,11.85,26.48,21.07C435.77,275.72,437.28,288.28,435.56,301.07Z" style="fill:#fff;fill-rule:evenodd"/></svg>