<svg xmlns="http://www.w3.org/2000/svg" viewBox="0 0 512 512"><title>rsq-icon-original-reddit</title><rect width="512" height="512" rx="113" ry="113" style="fill:#f16522"/><path d="M416.54,229.5c-11.86-16.4-34.69-21.43-51.34-10.55-4.79,3.14-7.6,2.72-12.11.13-26.3-15.06-55-21.92-85.07-23.8-2.3-.15-3.48-.3-2.48-3.13q10.11-28.13,19.91-56.4c.81-2.28,1.6-2.4,3.74-1.87q24.15,6,48.32,11.53c2.27.49,3.21,1.22,3.55,3.76,2.54,18.85,18.88,31.26,36.9,28.24a31.87,31.87,0,0,0,26.29-29.78,31.64,31.64,0,0,0-59.59-16.45c-1.18,2.34-2.45,2.57-4.63,2-19.17-4.63-38.38-9.09-57.5-13.89-3.56-.91-4.69-.09-5.84,3.2-8,23.27-16.2,46.47-24.37,69.7-.5,1.44-.66,3-3.1,2.95-6.47-.19-12.9.64-19.33,1.36-26.73,3.06-52,10.67-75.11,24.57-2,1.19-3.15,1-4.89-.26A36.06,36.06,0,0,0,122,213.67C105.22,216.29,93.8,226,89.59,242.34s.87,30.26,14.21,40.84a3.74,3.74,0,0,1,1.73,4,69.89,69.89,0,0,0,3.39,32.17c7.78,21.62,22.84,37.17,41.67,49.36,31.91,20.69,67.55,28.28,105.05,29,2.78-.17,5.56-.37,8.32-.44a200.82,200.82,0,0,0,62.81-11.75c23.31-8.46,44.27-20.6,60.5-39.85,13.24-15.75,20.59-33.68,18.87-54.5-.38-4.78,1.09-7.27,4.54-10.19C425.73,268.27,428.13,245.46,416.54,229.5Zm-222.11,68.6c-.63-.42-1.23-.89-1.81-1.35a23.47,23.47,0,0,1-3.18-3.2,9.3,9.3,0,0,1-.61-.77,24.27,24.27,0,0,1-2.91-5.07c-.09-.22-.18-.46-.25-.68s-.16-.42-.23-.63l0-.12c-.13-.34-.23-.69-.33-1a1.94,1.94,0,0,1-.09-.35,4.5,4.5,0,0,1-.2-.74,5.65,5.65,0,0,1-.19-.82.89.89,0,0,1-.05-.22,8.84,8.84,0,0,1-.15-.92,9.48,9.48,0,0,1-.14-1c-.05-.44-.09-.9-.11-1.35s0-.91,0-1.34v0c0-.48,0-1,0-1.43s.05-.69.09-1,.09-.8.14-1.19c.13-.81.28-1.57.48-2.34.12-.45.24-.9.39-1.31.05-.18.1-.34.16-.5.1-.32.22-.63.34-1a3.24,3.24,0,0,1,.15-.37c.17-.43.35-.87.56-1.28,0,0,0,0,0,0,.23-.46.45-.9.7-1.34.14-.23.27-.45.4-.67s.4-.66.61-1a23.3,23.3,0,0,1,2.9-3.55c.42-.42.87-.83,1.34-1.24a23.14,23.14,0,0,1,3.13-2.28,19.54,19.54,0,0,1,3.07-1.58,15.66,15.66,0,0,1,2.2-.8c.73-.23,1.49-.44,2.26-.61l1.15-.2c.33,0,.63-.1.92-.13s.62,0,.92-.08c.62,0,1.25-.08,1.87-.08l1.07,0a16.15,16.15,0,0,1,2.11.2c.34.05.69.1,1,.17s.69.14,1,.2l.92.22.29.1.77.22c.33.13.64.24,1,.34a22.36,22.36,0,0,1,2.12.9h0c.52.25,1,.53,1.52.83s1,.58,1.45.9.63.44,1,.67a29.48,29.48,0,0,1,3.38,3.08c.23.27.44.49.66.77s.72.89,1,1.34c.21.28.4.55.58.83a.8.8,0,0,1,.14.22,7.45,7.45,0,0,1,.49.79,1,1,0,0,1,.15.24c.13.24.27.48.39.73.25.48.51,1,.71,1.46.13.24.23.51.34.76s.23.58.34.86.2.6.3.91c0,0,0,0,0,.06.11.34.2.69.3,1,.19.72.34,1.48.47,2.23,0,.26.07.49.1.75.07.56.13,1.12.15,1.7,0,.41,0,.85,0,1.29v.23c0,.37,0,.72,0,1.08s0,.7-.08,1c0,.46-.07.91-.14,1.32a4.7,4.7,0,0,0-.1.63c0,.12-.06.28-.09.4a7.85,7.85,0,0,1-.16.83c-.06.29-.14.58-.23.86a7.59,7.59,0,0,1-.28,1c-.11.36-.24.75-.37,1.1-.27.73-.58,1.44-.92,2.15l-.65,1.23c-.18.33-.38.66-.58,1a4.71,4.71,0,0,1-.41.61.84.84,0,0,1-.17.23,8.3,8.3,0,0,1-.58.82,23.19,23.19,0,0,1-2.3,2.62c-.24.22-.47.44-.71.68-.56.51-1.19,1-1.83,1.48s-1.24.86-1.89,1.27-1.13.62-1.7.88a21,21,0,0,1-3.72,1.45c-.34.09-.68.2-1,.29l-1.15.25c-.79.15-1.57.27-2.4.34-.4,0-.81.08-1.23.09s-.93,0-1.39,0-.82,0-1.23,0a9.17,9.17,0,0,1-1-.08c-.43,0-.86-.09-1.28-.15l-.36,0c-.34-.08-.71-.14-1.07-.2s-.68-.15-1-.25-.73-.19-1.11-.3a22.58,22.58,0,0,1-3.22-1.29A22.26,22.26,0,0,1,194.43,298.11Zm119,40.91a4.94,4.94,0,0,1-.15.77,4.13,4.13,0,0,1-.19.59,5.93,5.93,0,0,1-.27.63l0,.06c-.09.17-.17.31-.26.46a1.19,1.19,0,0,1-.19.29,10.06,10.06,0,0,1-.9,1.15c-.2.2-.42.4-.65.59-1.12,1-2.27,1.88-3.45,2.76-.6.44-1.19.85-1.78,1.27-1.2.8-2.43,1.58-3.68,2.29-.62.38-1.26.73-1.9,1a51.89,51.89,0,0,1-4.84,2.33c-.83.38-1.67.72-2.49,1-1.52.58-3.06,1.12-4.6,1.63-.31.11-.65.2-1,.29-.71.23-1.45.45-2.17.65s-1.76.48-2.65.7c-.58.15-1.17.31-1.77.44l-.88.2c-1.75.39-3.49.75-5.25,1.06s-3.58.57-5.32.78l-2.38.26c-.65.06-1.29.11-1.91.14-.46.05-.87.06-1.32.1l-1,.06h-1c-1.49.05-2.93,0-4.32,0q-1.59,0-3.18,0c-.54,0-1.07,0-1.6,0l-1.23,0c-1.37-.06-2.73-.12-4.09-.21l-1-.06-2.29-.2c-.76-.07-1.51-.14-2.27-.23-.27,0-.57-.06-.85-.1-.56-.08-1.11-.12-1.64-.22s-1.1-.14-1.65-.24-1-.16-1.56-.26-1.13-.2-1.67-.31l-1.6-.33c-1.06-.23-2.11-.48-3.17-.74-.85-.23-1.73-.45-2.59-.71l-1.42-.43c-1.89-.59-3.77-1.26-5.61-2-.44-.16-.87-.34-1.3-.54-.9-.38-1.82-.78-2.69-1.19-.66-.35-1.34-.68-2-1s-1.31-.7-2-1.09a2.1,2.1,0,0,0-.25-.12l-1.07-.62c-.44-.28-.87-.52-1.3-.77-1.32-.83-2.62-1.68-3.84-2.58l-.91-.72c-.32-.24-.61-.49-.89-.75-.59-.49-1.16-1-1.71-1.53-.15-.16-.3-.29-.44-.45l-.52-.58-.44-.6a7.07,7.07,0,0,1-.69-1.23,4,4,0,0,1-.24-.63,5.08,5.08,0,0,1-.27-1.24,4.57,4.57,0,0,1,.09-1.77,3.93,3.93,0,0,1,.13-.53,5.4,5.4,0,0,1,.71-1.48,1.09,1.09,0,0,1,.23-.33,2.07,2.07,0,0,1,.33-.42,3.39,3.39,0,0,1,.32-.34c2.51-2.53,5.93-2.42,9.07.34.43.39.89.77,1.33,1.14a9.13,9.13,0,0,0,1,.79,12.41,12.41,0,0,0,1.09.82c.34.26.68.5,1,.74l.79.55c.45.3.92.6,1.35.87,1.06.63,2.11,1.23,3.21,1.78a1.34,1.34,0,0,0,.3.15c.28.17.57.28.85.43a3.33,3.33,0,0,0,.32.15,2.36,2.36,0,0,0,.55.23c.6.29,1.21.56,1.83.81s1.22.51,1.85.73l1.88.67,1.88.59a75.44,75.44,0,0,0,7.84,1.86l1,.17,1,.17c2.9.46,5.8.8,8.7,1s5.79.35,8.66.35h2.06c.77,0,1.54,0,2.3-.08l2-.1c.7,0,1.38-.12,2.07-.17.45,0,.91-.08,1.35-.14,1.22-.11,2.44-.26,3.64-.44s2.4-.4,3.58-.6c.91-.19,1.81-.36,2.73-.59,1.24-.28,2.48-.58,3.73-.92.87-.25,1.77-.51,2.66-.79.66-.19,1.31-.42,2-.62,1.4-.48,2.81-1,4.21-1.58.7-.28,1.42-.58,2.1-.89a47.51,47.51,0,0,0,11.89-7.31c.16-.11.29-.24.47-.35a1.93,1.93,0,0,1,.28-.21c.15-.11.3-.22.46-.31a7.25,7.25,0,0,1,1.22-.63l.42-.15.25-.06a2.91,2.91,0,0,1,.45-.12h.15a1.48,1.48,0,0,1,.47-.1H307a4.73,4.73,0,0,1,1.08,0,5.47,5.47,0,0,1,1.15.25l.56.23a6.26,6.26,0,0,1,1.57,1l.48.46a4,4,0,0,0,.39.44,9.9,9.9,0,0,1,.63,1,5.79,5.79,0,0,1,.67,2.67C313.49,338.56,313.47,338.78,313.44,339Zm16.83-55.73a7.56,7.56,0,0,1-.2.89c0,.28-.14.55-.22.85a18.91,18.91,0,0,1-1,2.94c-.11.27-.24.56-.38.86s-.26.5-.38.77l-.4.72a22.7,22.7,0,0,1-2.87,4,5.75,5.75,0,0,0-.55.59c-.13.14-.26.26-.39.39l-.82.8c-.39.34-.8.68-1.19,1a1.16,1.16,0,0,1-.23.17,13.56,13.56,0,0,1-1.14.84.46.46,0,0,0-.15.1,18.8,18.8,0,0,1-1.84,1.09,10.13,10.13,0,0,1-1.18.59,19.38,19.38,0,0,1-2.12.9c-.78.29-1.57.49-2.36.72-.35.06-.71.17-1.05.23s-.79.12-1.17.19l-1.19.15h0c-.41,0-.8.08-1.2.09s-.88,0-1.32,0a27.21,27.21,0,0,1-3.44-.24l-1.13-.21c-.15,0-.31-.06-.46-.09-.58-.12-1.17-.26-1.75-.45a9.47,9.47,0,0,1-1-.34,11.39,11.39,0,0,1-1.29-.48,11.62,11.62,0,0,1-1.13-.51c-.37-.17-.72-.35-1.1-.55s-1-.55-1.47-.86-1-.65-1.42-1-.89-.69-1.32-1.05a16.57,16.57,0,0,1-1.26-1.17,23.28,23.28,0,0,1-4.11-5.43c-.3-.54-.59-1.11-.85-1.67a21.86,21.86,0,0,1-1.31-3.68c-.18-.69-.33-1.38-.47-2.11-.08-.46-.14-.9-.19-1.36-.09-.8-.14-1.6-.15-2.42a23.74,23.74,0,0,1,7.06-17c.15-.12.31-.26.45-.38s.49-.47.75-.68a.4.4,0,0,1,.14-.13,6.37,6.37,0,0,1,.79-.65,25,25,0,0,1,3.4-2.3c.69-.37,1.39-.68,2.1-1a18.41,18.41,0,0,1,2.17-.81,4.09,4.09,0,0,1,.53-.15l.84-.25,1-.23a9.79,9.79,0,0,1,1.06-.17,10.27,10.27,0,0,1,1.75-.22c.28,0,.55,0,.83-.06a1,1,0,0,1,.29,0,1.84,1.84,0,0,1,.37,0h.33c.64,0,1.28,0,1.88.08.31,0,.63,0,.92.08s.61.08.91.13c.46.07.88.15,1.31.25a11.75,11.75,0,0,1,1.55.38c.34.09.69.2,1,.31l1.24.44,1,.42a1.21,1.21,0,0,1,.35.17,9.13,9.13,0,0,1,1,.52c.39.19.76.42,1.14.63l1.08.7a22.91,22.91,0,0,1,3.52,2.92c.26.27.54.56.78.84A21.52,21.52,0,0,1,327.3,266l.61,1a22.65,22.65,0,0,1,1,2.08,10.21,10.21,0,0,1,.55,1.46c.15.37.25.72.35,1.06a15.76,15.76,0,0,1,.42,1.65c.08.26.12.54.18.84s.11.54.14.82a8.45,8.45,0,0,1,.1.89,24.31,24.31,0,0,1,.15,2.6c0,.83,0,1.64-.12,2.46A23.42,23.42,0,0,1,330.27,283.28Z" style="fill:#fff;fill-rule:evenodd"/></svg>