<svg xmlns="http://www.w3.org/2000/svg" viewBox="0 0 512 512"><title>rsq-icon-original-digg</title><rect width="512" height="512" rx="113" ry="113" style="fill:#edeced"/><path d="M347.78,196.68V316.4h54.79v16.2H348.1V363h94.14V196.68Zm54.56,86.91h-14.6V228.32h14.6Z" style="fill:#262526"/><path d="M236.78,196.37V316.61h53.45v15.74l-53.08.15V363l92.8.49V196.37Zm53.4,87.41c-4.55.23-8.77.4-14.07.64V228.36h14.07Z" style="fill:#262526"/><polygon points="220.42 179.04 181.06 179.04 180.99 148.83 220.49 148.83 220.42 179.04" style="fill:#262526"/><rect x="181.04" y="196.36" width="38.47" height="119.1" style="fill:#262526"/><path d="M123.81,148.81v47.44H69.76V315.16H163V148.81Zm-.33,134.7-14,1.13v-56.2h14Z" style="fill:#262526"/></svg>