<svg xmlns="http://www.w3.org/2000/svg" viewBox="0 0 512 512"><title>rsq-icon-original-amazon</title><rect width="512" height="512" rx="113" ry="113" style="fill:#262526"/><path d="M420.51,329.52c-.51,14.82-4.38,28.56-13.25,40.64a23.57,23.57,0,0,1-4,4.46,5.55,5.55,0,0,1-3.27.88c-.31-.18-.41-2.12-.17-3.1,2.1-8.84,4.54-17.61,6.39-26.51.76-3.61.59-7.46.45-11.2-.1-2.91-1.87-5.28-4.79-5.38a157.63,157.63,0,0,0-20.07.27c-5.94.53-11.77,2.14-17.67,3.14-1.17.2-3.6-.19-3.78-.55s1-2.84,2-3.64c9.13-7.39,19.91-10.89,31.36-12.12a94.42,94.42,0,0,1,17.86-.12c7.83.62,8.82,2.08,9,9.86C420.55,327.26,420.51,328.39,420.51,329.52Z" style="fill:#f7981d;fill-rule:evenodd"/><path d="M390.51,349.8c-16.07,14.07-34.33,24.61-53.87,33a251.86,251.86,0,0,1-67.77,18.39C259,402.44,248.94,402.66,243,403c-56.94-.46-104.9-15.84-147.76-47a7.1,7.1,0,0,1-1.75-1.37c-.78-1.27-1.34-2.65-2-4,1.66-.17,3.55-1,4.95-.45,16.25,5.79,32.22,12.39,48.62,17.55a233.41,233.41,0,0,0,53.26,10c14.8,1.08,29.71,2.38,44.51,2A318.9,318.9,0,0,0,373.63,348.1c4-1.91,7.84-3.92,11.75-5.86,2.61-1.32,5.16-1.46,7,1.17S392.39,348.13,390.51,349.8Z" style="fill:#f7981d;fill-rule:evenodd"/><path d="M354,315.9a51.32,51.32,0,0,0-4.79-7.15c-5.28-7.05-10-14.4-11.55-23.28a77,77,0,0,1-1.17-12.29c-.33-33.55.14-67.13-1-100.66-.8-24.88-13.21-43.37-36.27-53.38-32-13.81-64.62-13.05-96.84-.84-25.75,9.78-41.55,28.7-47.46,55.74-1.46,6.78.93,10.42,7.74,11.22,12.66,1.54,25.34,2.94,38,4.3,5.61.61,8.86-1.75,10.23-7.52s3.47-11.28,7.77-15.55c10.36-10.34,22.91-12.68,36.68-9.33,10.38,2.53,16.94,9.43,18.52,19.87,1.32,8.71,1.15,17.63,1.64,26.75-8.86.9-16.73,1.34-24.49,2.59-15.29,2.51-30.74,4.44-45.64,8.42-22.67,6.06-40.83,19-50.9,41-9.16,20.1-9.66,40.93-2.81,61.79,5.79,17.61,17.73,29.61,35.2,35.94,10.5,3.82,21.37,4.43,32.47,4.12,20.2-.59,37.95-7,53-20.52,3.86-3.47,7.68-7,11.73-10.68,6.22,9.88,12.88,18.94,21.64,26.24,5.75,4.75,9.61,4.91,15.23,0q15.48-13.36,30.91-26.79C355.34,323,356.1,319.93,354,315.9Zm-84.53-26.59c-4.48,9.82-10.89,18-21.23,22.17-16.42,6.66-31.85-1-35.84-18.27-3.62-15.52-1.31-29.89,11.22-41.1,7.17-6.45,16.13-9.47,25.46-11,8.34-1.34,16.83-1.83,26-2.79C274.75,256.1,276.91,273.2,269.49,289.31Z" style="fill:#fff;fill-rule:evenodd"/></svg>