<svg xmlns="http://www.w3.org/2000/svg" viewBox="0 0 512 512"><title>rsq-icon-original-google-plus</title><rect width="512" height="512" rx="113" ry="113" style="fill:#e24d38"/><path d="M276.55,326.83c-15.61,20.39-36.85,31.83-61.89,35.9-27.93,4.56-54.39,0-78.52-15.25-27.45-17.37-43.8-42.51-48.91-74.29-5.76-35.81,4.4-67.5,29.64-93.38,22.1-22.62,49.72-33.15,81.6-32.17,25.34.79,47.36,9.55,66.26,26.34a11.78,11.78,0,0,0,2.44,1.34l-29.74,28.62C225,192.47,210.58,187.13,194,187.45c-25.69.48-45.08,12.05-57.91,34-22.29,38.09-3.24,87.29,39,100.09,28.44,8.62,61.59-.4,76.49-30.85,1.9-3.92,2.92-8.24,4.51-12.89H194.52V240.6c1.65-.09,3.21-.23,4.74-.23,31,0,61.92.05,92.88-.08,3.34,0,4.84.89,5.21,4.31C300.66,274.61,295.19,302.46,276.55,326.83Z" style="fill:#fff;fill-rule:evenodd"/><polygon points="426.33 240.25 426.33 271.26 396.05 271.26 396.05 302.01 364.87 302.01 364.87 271.43 334.44 271.43 334.44 240.38 364.68 240.38 364.68 209.83 395.7 209.83 395.7 240.25 426.33 240.25" style="fill:#fff;fill-rule:evenodd"/></svg>