<svg xmlns="http://www.w3.org/2000/svg" viewBox="0 0 512 512"><title>rsq-icon-original-ebay</title><rect width="512" height="512" rx="113" ry="113" style="fill:#edeced"/><path d="M432.67,216.41c-6.77-.26-10.59,1.82-13.57,8.2-7.81,16.87-16.46,33.38-24.8,50-.68,1.36-1,3.51-2.6,3.64-2.19.17-2.33-2.32-3.07-3.77-7.42-14.67-14.74-29.41-22.12-44.14s-7.3-14.56-23.47-13.82c-3.74.18-6.53.71-3.63,5.77l9,18.64c8.28,13.28,14.37,27.5,22.95,40,9.21,13.32,7.86,24.48-.42,37.27-7.84,12.12-7.1,12.34,7.46,12.64,5.48.11,8.43-1.72,10.9-6.63,16.38-32.56,33.07-64.95,49.64-97.41C444.18,216.57,444.13,216.9,432.67,216.41Z" style="fill:#83ba41;fill-rule:evenodd"/><path d="M348.75,295.78c-.09-15.08-.22-30.16-.3-45.24,0-3.2,0-6.39,0-9.6l-9-18.64c-17.81-10.93-36.1-10.27-54.57-5.52a26.91,26.91,0,0,0-16.47,11.58c-1.73,2.78-4.25,6-2.58,9.19,1.55,3,5.33,1.25,8.14,1.5,2.13.22,4.3,0,6.46.06,2.83.1,5-.86,6.07-3.58,4.41-11.06,31.74-11.49,39-1a15.22,15.22,0,0,1,2.1,4.16c1.94,6.17.38,8.24-6.06,8.42-9.39.29-18.78.34-28.16,1.07-11.61.88-22.65,3.67-31.57,13.85l-3.35,13.8c1,9.39,4.15,16,10.85,20.36,8.64,5.69,18.36,7.57,28.6,6.87,11.76-.8,22.62-4.14,31.1-12.47,1.84,1.23,1.43,2.52,1.48,3.62.18,2.59.11,5.63,3.66,5.59,4.75-.05,9.77,1.63,14.22-1.24C348.87,298.23,348.77,296.74,348.75,295.78Zm-42.29-6.66c-2.33.28-4.69.26-7.05.37-4.68-.08-9.4,0-13.59-2.73-4.66-3-7.09-7.26-6.55-12.85.49-5.26,3.81-8.43,8.64-10,11.94-3.88,24.39-2.78,36.64-3.56,3.14-.18,3.61,2.18,3.75,4.77C328.93,277.1,319.41,287.66,306.46,289.12Z" style="fill:#f3b01c;fill-rule:evenodd"/><path d="M234.72,217.21c-18.16-6.67-35.69-4.55-52.16,9.19V181.19H163.74V242l-.19,26.53q0,.31,0,.66c-.3,8.43-.33,16.84-.53,25.27-.05,1.76-.66,4.16,1.21,4.73,5.15,1.57,10.56,1.26,15.7.36,4-.71,2.23-4.82,3-7.45.13-.46.63-.82,1.18-1.54,11.37,11.59,25.59,13.34,40.44,11.56,15.62-1.89,26.83-10.59,33.94-26.31L261.8,262C261,240.94,254.47,224.45,234.72,217.21Zm-22.9,72C195,289.12,182.88,276,183.11,258c.23-18.2,12.11-30.64,29.29-30.66,16.08,0,28.46,13.11,28.6,30.25C241.12,275.76,228.68,289.23,211.82,289.17Z" style="fill:#3064ae;fill-rule:evenodd"/><path d="M163.74,242c-6.13-15.51-17.25-24.74-33.35-27.38-12-2-24.11-1.74-35.83,2.59-14.56,5.37-24.86,21.53-24.86,31v21.17c0,6.81,8.64,22.41,20.71,27.64,17.52,7.68,35.42,7.91,53.14,1a29.25,29.25,0,0,0,17.12-16.9c.75-1.93,1.86-4.13-.87-5.61-4.67-2.53-17.41.28-20.67,4.46-7.38,9.46-17.59,10.47-28.23,8.57-10.46-1.84-17.54-8.12-20.39-18.75-1.15-4.34,0-6.18,4.69-6.17q31.47.2,62.9,0h5.5Zm-25,8.24c-7.41-.14-14.82-.05-22.24-.05-7.21,0-14.45-.13-21.67.06-4.23.09-4.9-1.61-3.92-5.38,2.77-10.57,13.26-17.64,26.71-17.64,13.28,0,22.27,6.39,25.15,17.59C143.73,248.72,142.82,250.31,138.71,250.26Z" style="fill:#e63132;fill-rule:evenodd"/></svg>