<svg xmlns="http://www.w3.org/2000/svg" viewBox="0 0 512 512"><title>rsq-icon-original-twitch</title><rect width="512" height="512" rx="113" ry="113" style="fill:#65449a"/><path d="M391,119.18c0-4-1-4.56-4.66-4.53q-123.12.16-246.24.1c-6.42,15.5-12,31.31-19.06,46.57V359.17c21.68,0,43.39.13,65.06-.08,4.07-.07,5,1.09,4.88,5-.3,9.89,0,19.75-.16,29.61,0,2.68.61,3.72,3.5,3.66q14.27-.25,28.55,0c2.68,0,4.18-1.29,5.84-2.94,10.69-10.75,21.46-21.42,32.1-32.25a9.35,9.35,0,0,1,7.38-3c14.65.15,29.27-.12,43.91.17A12.62,12.62,0,0,0,322.14,355q32-32.37,64.33-64.36a40.47,40.47,0,0,1,4.37-3.41C390.85,231.19,390.8,175.18,391,119.18ZM365.53,272.89a8.31,8.31,0,0,1-2.7,6.46q-18.08,17.85-35.89,35.9a8.81,8.81,0,0,1-7,2.72c-19.4-.11-38.79,0-58.15-.12a9.28,9.28,0,0,0-7.37,3.1c-11.21,11.44-22.55,22.71-35,35.18,0-12.17-.22-22.7.13-33.2.13-4.39-1.35-5.15-5.33-5.11-15.85.21-31.71,0-47.57.17-3.35,0-4.45-.75-4.44-4.32q.15-84.61,0-169.18c0-3.42.81-4.44,4.33-4.42q97.31.15,194.58,0c3.4,0,4.42.85,4.41,4.33Q365.35,208.68,365.53,272.89Z" style="fill:#fff"/><path d="M254.42,257.32a3.21,3.21,0,0,1-3.64,3.48c-6.12,0-11.77,0-14.71,0-2,0-3.86-.28-3.83-4.82,0-6.35-.16-61.68-.2-64-.09-3.56,1.08-4.29,4.45-4.3,4.79,0,9.54,0,14.29,0,1.79,0,3.64.65,3.64,3.51Q254.42,224.26,254.42,257.32Z" style="fill:#fff;fill-rule:evenodd"/><path d="M321.11,256.53c0,3.22-.69,4.3-4.45,4.29-4.9,0-9.57,0-14.27,0-2.7,0-3.67-.62-3.67-3.5q.2-33.07,0-66.13c0-2.87,1-3.67,3.67-3.48l14.53,0c2.54,0,4,0,4.07,3.59C321.16,197.42,321.1,254.16,321.11,256.53Z" style="fill:#fff;fill-rule:evenodd"/></svg>