<svg xmlns="http://www.w3.org/2000/svg" viewBox="0 0 512 512"><title>rsq-icon-original-blogger</title><rect width="512" height="512" rx="113" ry="113" style="fill:#f16822"/><path d="M366.64,241.25c0-7.36-5-11.34-12.37-11.52-4.21-.14-8.41-.14-12.56-.31-10.69-.5-13.2-2.85-15.23-13.43a33.79,33.79,0,0,1-1-5.84c-1.2-17.58-7.84-32.47-21.45-43.83-14.41-11.91-30.1-19-49.5-19.1-12.87-.06-25.27,0-38,0-40.33,0-71.27,31-71.27,71.28v76.2a69.74,69.74,0,0,0,70.07,70.08c1.63,0,3.93.05,6.82.05,11.25.06,22.55-.05,33.85-.05h0c10.86,0,21.72-.16,32.59-.28h.21c5.13,0,10.31-.21,15.46-.64.3,0,.64-.05.91-.05,30.14-2.5,56.61-27.13,59.77-57.1C367.3,285.09,366.64,263,366.64,241.25ZM203.73,215.33a10.46,10.46,0,0,1,.33-1.86,4.15,4.15,0,0,1,.17-.59c.16-.39.26-.78.42-1.2a16.3,16.3,0,0,1,1.2-2.08,17.65,17.65,0,0,1,1.21-1.42,9.47,9.47,0,0,1,1.57-1.29,8.26,8.26,0,0,1,2-1.2,12.84,12.84,0,0,1,2.52-.93,17.74,17.74,0,0,1,4.21-.55c6.09-.05,12.27,0,18.44,0s12.59-.05,18.94,0a15.2,15.2,0,0,1,7.58,2,13,13,0,0,1,2,1.48,7.28,7.28,0,0,1,1.3,1.48A9.81,9.81,0,0,1,267,211.5a11.79,11.79,0,0,1,1,4.91,12.57,12.57,0,0,1-2.79,8.47,8.64,8.64,0,0,1-1.46,1.48,7.54,7.54,0,0,1-.83.59,13.34,13.34,0,0,1-8,2.52q-18.9.18-37.82,0c-6.56-.05-11.46-3.77-12.94-9.17a5.47,5.47,0,0,1-.27-1.09,4,4,0,0,1-.17-1.2,11.16,11.16,0,0,1-.12-1.32A10.86,10.86,0,0,1,203.73,215.33ZM307.43,299a4.62,4.62,0,0,1-.26.87,3.58,3.58,0,0,1-.34.66,4.15,4.15,0,0,1-.33.7,11.78,11.78,0,0,1-1.35,2,9.19,9.19,0,0,1-.71.7,4.28,4.28,0,0,1-.49.38,5.13,5.13,0,0,1-.76.61l-.23.16c-.28.16-.61.37-.93.54a.47.47,0,0,1-.33.17,3.29,3.29,0,0,1-.87.37,4.39,4.39,0,0,1-.94.4,18.1,18.1,0,0,1-5.56.92H256.07v-.07H240.36c-8.24.07-16.55.07-24.85,0a14.62,14.62,0,0,1-2.18-.22,11.51,11.51,0,0,1-3.06-1.08,12.39,12.39,0,0,1-2.61-1.75l-.77-.77a12.21,12.21,0,0,1-3.17-6.5,12.6,12.6,0,0,1,1.2-7.53,8.07,8.07,0,0,1,1-1.62,7.64,7.64,0,0,1,.86-1.11,10.9,10.9,0,0,1,1.65-1.46,8.37,8.37,0,0,1,1.85-1.2,11.61,11.61,0,0,1,1.86-.81c.38-.12.82-.23,1.25-.33a17.16,17.16,0,0,1,3.77-.33c13.69,0,27.46-.05,41.16-.05h5c8.84,0,17.69,0,26.58.05h4.73a14.22,14.22,0,0,1,11.63,5.73c.11.22.22.39.33.61.21.39.38.76.55,1.15.05,0,.05.05.05.1a14.11,14.11,0,0,1,.86,4.92A12.42,12.42,0,0,1,307.43,299Z" style="fill:#fff;fill-rule:evenodd"/></svg>