<svg xmlns="http://www.w3.org/2000/svg" viewBox="0 0 512 512"><title>rsq-icon-original-facebook-b</title><rect width="512" height="512" rx="113" ry="113" style="fill:#4d6bb2"/><path d="M423.49,227.9c-2,20.28-3.93,40.57-5.46,60.83-.4,5.1-2.68,5.92-7,5.88-15.88-.13-31.71.14-47.57-.15-5.13-.07-6.53,1.71-6.49,6.64.17,34,.08,68,.08,101.94s0,68,0,102c0,6.8-.17,7-7.08,7h-73.7c-7,0-7.19-.15-7.19-7.47V304.3c0-8.69,0-8.69-8.45-8.69-10.29,0-20.56-.15-30.86.06-4.31.1-5.83-1.52-5.77-5.78.15-21.11.15-42.16,0-63.27,0-4.42,1.78-5.69,5.94-5.63,11.16.19,22.29-.1,33.48.15,4.29.07,5.8-1.44,5.75-5.73-.16-18-.3-35.93,0-53.88.34-20.24,4.13-39.53,18-55.43,11.46-13.06,26.54-19.42,43-22.93A152.12,152.12,0,0,1,363.39,80q27.16.2,54.36,0c4.81-.08,6.38,1.59,6.32,6.38-.19,21.24-.21,42.54,0,63.76.06,5.13-1.82,6.63-6.7,6.51-13.6-.23-27.22-.12-40.81-.06-14,.09-19.31,5.27-19.48,19.28-.15,13.08.12,26.13-.11,39.23-.07,4.48,1.3,6.13,6,6.07,18.11-.21,36.24-.1,54.4-.08C423.84,221.06,424.09,221.62,423.49,227.9Z" style="fill:#fff;fill-rule:evenodd"/></svg>