<svg xmlns="http://www.w3.org/2000/svg" viewBox="0 0 512 512"><title>rsq-icon-original-google-plus-b</title><rect width="512" height="512" rx="113" ry="113" style="fill:#e24d38"/><path d="M274.83,296.21c-12.88-11.39-26.92-21.5-39.64-33.09-.37-.33-.68-.67-1-1-.79-.88-1.57-1.78-2.31-2.71-9.06-11.36-8.56-22.16,1.56-32.54,4.49-4.59,9.29-8.88,14-13.31l1.41-1.16a97.83,97.83,0,0,0,17.41-18.11,55.91,55.91,0,0,0,4.29-6.14A67.88,67.88,0,0,0,276.86,174c5.15-15.23,4.84-31.72-1.39-48.54-4.29-13-11.65-24.25-23.25-32.82a1.88,1.88,0,0,1-1.07-2.38c6.46,0,13-.09,19.63,0a15.09,15.09,0,0,0,12-5c3.85-4.11,7.73-8.18,11.59-12.29,2.7-3,5.42-5.93,8.68-9.44h-3c-38.12.15-76.23-.05-114.35.49A131.72,131.72,0,0,0,158.9,67c-31.83,5.16-56.24,23.66-68.88,56.7C78.7,153.35,86.84,188.11,108,210.21l.11.13A49.11,49.11,0,0,0,119.35,220a70.09,70.09,0,0,0,13.59,7.36c14.48,5.87,27.15,9,46.61,12.22a9.5,9.5,0,0,1-.32,1.77A35.78,35.78,0,0,0,177,264.8c.06.28.14.55.2.83s.1.44.16.65a39.15,39.15,0,0,0,5.07,11.55,73.78,73.78,0,0,0,6.35,9c-6.23.35-9.95.47-13.67.77-30.15,2.23-59.62,6.73-85.28,24.59-39.4,27.36-40.06,86.4.63,111,54.06,32.64,111,32.48,167.86,6.9a81.18,81.18,0,0,0,25.61-17.78l.49-.51,1.09-1.17c.54-.59,1.07-1.21,1.59-1.84a72.18,72.18,0,0,0,13.24-23.86,77.23,77.23,0,0,0,4.63-26.26C305.41,334.63,294.78,313.84,274.83,296.21ZM143.67,190.61c-13.39-19.52-18.27-41-14.94-64,.35-1.51.69-3,1.05-4.53a71.79,71.79,0,0,1,5.84-16.6c.18-.35.39-.68.58-1a55.5,55.5,0,0,1,11.42-13.37c14.11-12.08,35.9-10.9,52,.67a72.35,72.35,0,0,1,6,4.8,108.55,108.55,0,0,1,14.31,17.27A102.2,102.2,0,0,1,228,130.46a106.65,106.65,0,0,1,7.21,32.88,105.56,105.56,0,0,1-2.82,25,46.5,46.5,0,0,1-4.1,11.09c-6,10.58-15.36,17.37-26.55,19.5a49.23,49.23,0,0,1-22.16-1.56,65.11,65.11,0,0,1-23.94-13.08A73.34,73.34,0,0,1,143.67,190.61ZM246.08,406.83c-.77.65-1.56,1.27-2.39,1.88-.3.22-.57.44-.87.63-.59.43-1.21.85-1.84,1.27s-1.54,1-2.35,1.5c-.16.08-.32.18-.47.28-.81.48-1.64,1-2.49,1.39s-1.58.83-2.39,1.18a4.36,4.36,0,0,1-.77.38q-1.31.62-2.67,1.18c-14.22,5.89-23.54,7.81-45.34,9.26-25.2-1.12-48.8-5.7-66.44-25.3a58.43,58.43,0,0,1-12-19.76,54.93,54.93,0,0,1-1.9-7v0a48.66,48.66,0,0,1-.44-16.24v-.08c.1-.64.2-1.27.34-1.9a16.26,16.26,0,0,1,.4-1.9c.1-.52.22-1,.36-1.55.18-.71.38-1.41.59-2.1a50.43,50.43,0,0,1,2.51-6.59c.3-.63.59-1.27.93-1.9l.71-1.36c.47-.87,1-1.72,1.5-2.57.24-.41.49-.81.76-1.21a55,55,0,0,1,8.32-9.5,96.9,96.9,0,0,1,34.76-20.95c1-.3,1.94-.6,2.92-.87,1.52-.43,3-.81,4.59-1.15a107.07,107.07,0,0,1,20.73-2.55,120.36,120.36,0,0,1,38.15,6.48,73.72,73.72,0,0,1,8.33,3.34c.66.33,1.32.66,2,1,2.24,1.23,4.39,2.55,6.49,4a67.66,67.66,0,0,1,6,4.59c1.37,1.17,2.67,2.37,3.92,3.64.65.65,1.31,1.32,1.92,2,0,0,.06,0,.06.08.63.67,1.25,1.37,1.82,2.06s1.13,1.34,1.66,2c.08.08.14.18.22.27.5.66,1,1.33,1.46,2s.95,1.36,1.4,2.06a.86.86,0,0,1,.1.16c.29.46.57.93.86,1.4a68.74,68.74,0,0,1,4.73,9.85,55.52,55.52,0,0,1,2.55,8.85c.12.63.26,1.25.36,1.88.15.89.28,1.78.38,2.66,0,.3.06.62.09.92,0,.5.08,1,.11,1.5s.05.79.07,1.18c0,.7.05,1.43.05,2.16,0,.07,0,.13,0,.2,0,.63,0,1.27,0,1.88s0,1-.08,1.46-.08,1.15-.14,1.72-.08.89-.14,1.35c-.14,1.09-.3,2.18-.52,3.26-.12.63-.24,1.29-.39,1.92s-.3,1.27-.46,1.9c-.34,1.26-.73,2.51-1.15,3.76-.21.61-.43,1.23-.69,1.84s-.47,1.23-.75,1.82-.52,1.21-.81,1.8-.57,1.19-.89,1.79-.63,1.16-1,1.74-.67,1.15-1,1.72c-.53.85-1.09,1.68-1.68,2.52s-1.19,1.64-1.82,2.43c-.41.54-.85,1.07-1.3,1.59-.91,1-1.84,2.05-2.83,3-.67.67-1.39,1.34-2.1,2S246.75,406.27,246.08,406.83Z" style="fill:#fff;fill-rule:evenodd"/><path d="M451.89,143c-.39-6-.39-12-.25-18,.09-3.07-.77-4.13-4-4.13-14.59,0-29.16-.44-43.73-.38-3.75,0-4.39-1.26-4.35-4.6.14-14.45,0-28.9.12-43.37,0-2.65-.75-3.54-3.45-3.47-6.51.19-13,.22-19.57,0-3.2-.12-3.81,1.08-3.8,4,.12,14.47,0,28.92.12,43.37,0,3.18-.84,4.11-4.05,4.08-14.44-.17-28.91,0-43.35-.15-2.8,0-3.84.66-3.75,3.63q.33,9.49,0,19a8,8,0,0,1-.4-1.19,8.41,8.41,0,0,0,.39,1.28c0,.17,0,.34,0,.5-.07,2.93.88,3.68,3.71,3.66,14.33-.15,28.65,0,43-.15,3.41,0,4.57.71,4.55,4.38-.07,14.71.29,29.42.39,44.12,0,2.54.82,3.27,3.3,3.27,6.16,0,12.28.15,18.41.55,3.39.21,4.6-.59,4.54-4.29-.22-14.83,0-29.69-.13-44.51,0-2.68.77-3.54,3.46-3.49,7.54.16,15.1.06,22.63.06,7.29,0,14.58-.17,21.86.06C450.75,147.18,452.11,146.56,451.89,143Z" style="fill:#fff;fill-rule:evenodd"/></svg>