<svg xmlns="http://www.w3.org/2000/svg" viewBox="0 0 512 512"><title>rsq-icon-original-playstation</title><rect width="512" height="512" rx="113" ry="113" style="fill:#1f4492"/><path d="M137,338.74c4.5,1.42,9.43,2.69,14,2.27a135.39,135.39,0,0,0,24.2-4.34c8.55-2.37,16.82-5.9,25.82-9.15,0,9.6.09,18.54-.12,27.48,0,.87-1.59,2.26-2.63,2.48-16.47,3.41-33.5,5.23-50,3.11-14.55-1.86-28.68-6.53-42.89-10.34a51.38,51.38,0,0,1-17.56-9.06c-9.68-7.58-9.08-17.86,1.39-24.25a146.13,146.13,0,0,1,25.61-12.63c27.52-10.23,55.26-19.83,82.89-29.66.92-.3,1.89-.51,3.35-.89,0,10.67.1,20.93-.16,31.22,0,1-2.18,2.39-3.6,2.9-17.8,6.48-35.64,12.81-53.45,19.27A34.71,34.71,0,0,0,136,330.9C131.82,333.7,132.14,337.25,137,338.74Zm139.17-173.2c-3.72,1-6.53,5.24-6.94,10.59-.16,2.29-.11,4.65-.11,7q0,101.11,0,202.19v6.07c-11.23-3.57-21.64-6.92-32.08-10.23-7-2.26-14-4.65-21.12-6.58-3.2-.88-3.92-2.5-3.9-5.55q.15-61.21,0-122.46,0-59.93,0-119.87v-6.06c12.57,3.16,24.51,5.93,36.29,9.2,21.31,5.92,42.71,11.68,62.83,21,17.65,8.22,32.13,19.77,38.87,38.9,4.59,13,5.72,26.67,4.9,40.33a92.64,92.64,0,0,1-3.93,22.53c-6.56,20.25-24.43,29.59-45.05,24.28-14.17-3.66-14.17-3.66-14.17-18.12,0-24.12.07-48.23-.09-72.36,0-3.84-1-7.71-1.69-11.53a11.16,11.16,0,0,0-1.66-3.51C285.43,167,280,164.44,276.13,165.54ZM426.59,329.4c-6.33,6.46-14.28,10.37-22.63,13.43q-60.38,21.82-120.82,43.46c-.93.35-1.89.56-3.54,1,0-10.48.12-20.35,0-30.2-.07-3.19,2.21-3.4,4.14-4.08q30.59-11,61.26-21.83,13.09-4.67,26.15-9.39a20.16,20.16,0,0,0,5.45-2.61c1.56-1.26,3.72-3.35,3.51-4.82s-2.67-3.32-4.54-3.93a46,46,0,0,0-28.24-.21c-17,5.19-33.72,11.32-50.54,17.07-5.46,1.88-10.88,3.83-17.14,6V322.72c0-6.38.17-12.78-.06-19.18-.13-3.22.71-4.81,4.07-5.81,23.18-7,46.72-10.84,71.07-9.43,20.48,1.18,40.17,5.33,58.92,13.41a45.88,45.88,0,0,1,13,8.54C432.78,316,432.54,323.35,426.59,329.4Z" style="fill:#fff"/></svg>