<svg xmlns="http://www.w3.org/2000/svg" viewBox="0 0 512 512"><title>rsq-icon-original-android</title><rect width="512" height="512" rx="113" ry="113" style="fill:#7dbf42"/><path d="M295.45,132.71l3.23-4.86,3.19-4.76L309,112.36a2.86,2.86,0,0,0-4.75-3.19l-7.68,11.5-3.25,4.84-3.24,4.89a96,96,0,0,0-68.2,0l-3.28-4.89-3.18-4.84-7.69-11.5a2.86,2.86,0,0,0-4.76,3.19l7.14,10.73,3.21,4.76,3.21,4.86c-24.34,11.33-40.81,32.79-40.81,57.37h160.5C336.23,165.5,319.78,144,295.45,132.71Zm-73.82,34.43a8.59,8.59,0,1,1,8.56-8.6A8.6,8.6,0,0,1,221.63,167.14Zm68.76,0a8.59,8.59,0,1,1,8.61-8.6A8.59,8.59,0,0,1,290.39,167.14Z" style="fill:#fff"/><path d="M177,201.55h-1.27V327.63a18.2,18.2,0,0,0,18.17,18.19H207a17.1,17.1,0,0,0-.68,4.77v36.3a17.22,17.22,0,0,0,34.43,0v-36.3a16.74,16.74,0,0,0-.73-4.77H272a17.13,17.13,0,0,0-.66,4.77v36.3a17.21,17.21,0,0,0,34.41,0v-36.3a17.9,17.9,0,0,0-.7-4.77h13.11a18.15,18.15,0,0,0,18.12-18.19V201.55H177Z" style="fill:#fff"/><path d="M147.1,201.55a17.18,17.18,0,0,0-17.21,17.18v73.58a17.19,17.19,0,1,0,34.38,0V218.73A17.18,17.18,0,0,0,147.1,201.55Z" style="fill:#fff"/><path d="M364.9,201.55a17.21,17.21,0,0,0-17.2,17.18v73.58a17.21,17.21,0,0,0,34.41,0V218.73A17.2,17.2,0,0,0,364.9,201.55Z" style="fill:#fff"/></svg>