<svg xmlns="http://www.w3.org/2000/svg" viewBox="0 0 512 512"><title>rsq-icon-original-xing</title><rect width="512" height="512" rx="113" ry="113" style="fill:#00797d"/><path d="M237.09,221.89q-26,43.63-51.8,87.31c-.66,1.17-1.23,2.19-2.92,2.19-17.3-.08-34.58-.06-51.86-.12-.19,0-.35-.17-.8-.46,1.52-2.63,3.06-5.28,4.62-7.89q24-40.41,47.92-80.77c1.09-1.85,1.19-3.1-.06-5Q165.13,191,148.28,164.77c-.59-.9-1.15-1.83-2-3.16h8.32c15,0,29.92.06,44.9-.08,2.45,0,3.68.82,4.91,2.83Q220.61,190.84,237,217.2A3.86,3.86,0,0,1,237.09,221.89Z" style="fill:#fff;fill-rule:evenodd"/><path d="M288.32,278.29c-1.23,2.16-.66,3.6.39,5.44q32,56.16,64,112.49c.89,1.57,1.77,3.19,2.67,4.81-1.21.82-2.22.51-3.16.51-17.18,0-34.35,0-51.51.08a4.62,4.62,0,0,1-4.62-2.75Q263.8,341.26,231.29,283.8c-1.33-2.32-1.23-3.92.14-6.22q48.48-82.75,96.72-165.65c1.27-2.16,2.57-3.08,5.16-3,15.29.14,30.57.08,45.88.1,1,0,2.16-.33,3.45.47l-11.26,20.22Q329.88,204,288.32,278.29Z" style="fill:#fff;fill-rule:evenodd"/></svg>