<svg xmlns="http://www.w3.org/2000/svg" viewBox="0 0 512 512"><title>rsq-icon-original-bebo</title><rect width="512" height="512" rx="113" ry="113" style="fill:#ec1c24"/><path d="M386.15,280a119.51,119.51,0,0,1-24.06,74.2c-16.6,22.41-38.39,37.46-65.08,45.45a112.16,112.16,0,0,1-17.18,3.61,135.6,135.6,0,0,1-17.77,1.09c-6.5,0-13,0-19.48-.22a110.29,110.29,0,0,1-33.07-6.2,124.31,124.31,0,0,1-78.31-80.74A113.65,113.65,0,0,1,126.63,295a155.26,155.26,0,0,1-.78-15.73q0-34.21,0-68.37,0-39.51,0-79a23.84,23.84,0,0,1,1.17-8c2.87-8.31,8.56-13.62,17.09-15.72a23.87,23.87,0,0,1,24.47,8.89,22.68,22.68,0,0,1,4.28,13.23c0,1,0,2,0,3q0,73.62.09,147.16a83,83,0,0,0,.92,13.16,72.79,72.79,0,0,0,10.94,28.77c11.49,17.7,27.65,28.75,48.21,33.38a63.4,63.4,0,0,0,14,1.59c5.88,0,11.75.1,17.6,0,21.38-.45,39.45-8.48,54.16-23.92a72.23,72.23,0,0,0,19.16-37.92c7.12-40.24-17.07-75.47-52-86.28a68.72,68.72,0,0,0-16.52-3.13c-3.1-.16-6.17-.29-9.26-.33q-6.5-.06-13,0A23.44,23.44,0,0,1,243,159.35a28.59,28.59,0,0,1,4.38-.4c5.65,0,11.27,0,16.91,0a115.44,115.44,0,0,1,47.84,10.26q48.1,21.88,66.87,71.37a109.38,109.38,0,0,1,6,24A123,123,0,0,1,386.15,280Z" style="fill:#fff;fill-rule:evenodd"/></svg>