<svg xmlns="http://www.w3.org/2000/svg" viewBox="0 0 512 512"><title>rsq-icon-original-pinterest-b</title><rect width="512" height="512" rx="113" ry="113" style="fill:#cd2027"/><path d="M417.88,281.13c-6,29.61-17.62,56.76-37.6,79.66-25.12,28.71-56.74,43.23-94.63,41.79-22.47-.86-41.92-9.51-55.68-28.63a11.77,11.77,0,0,0-1.54-1.31c-2.65,10.6-4.95,20.89-7.78,31-5.3,18.89-9.82,38.12-16.59,56.46-7,18.86-17.67,35.76-29.53,51.89H159c-3.65-34.25-1.8-73.44,7.06-107.19,9.63-36.74,17.56-73.93,26-111a17.74,17.74,0,0,0-.66-9c-8.19-25.18-9.3-50.11,3.12-74.2,7.85-15.28,19.82-25.51,37.69-26.18,18.3-.66,31.09,10.82,33.68,29.16,2.09,14.73-1.66,28.59-5.44,42.45-4.7,17-9.57,34-14.83,50.89-10.27,33,17.6,59.23,50.48,51.08,14.27-3.51,25.34-12,34.46-23.25C344.3,318,352,298.2,356.79,277.19c5.24-23.21,8.13-46.8,4-70.42-6.8-38.14-29.41-62.58-66.25-72.23-39.1-10.29-76.85-5.91-109.69,19-38.08,28.92-52.84,68.57-45.45,116.26,1.7,11.15,6.94,21,14.31,29.49,4,4.58,5,9.3,3.24,15.07S154,326,152.5,331.67c-2.28,8.79-6.65,10.86-15,7.09-19.1-8.65-32-23.54-39.16-43-17.7-48.26-10.86-93.88,17.72-135.87,27.19-39.94,66-61.67,112.69-69.68,34.61-5.94,68.92-4.66,101.74,9,47.67,19.78,78.94,54.46,89.89,106.07C425.81,230.55,423,256,417.88,281.13Z" style="fill:#fff;fill-rule:evenodd"/></svg>