<svg xmlns="http://www.w3.org/2000/svg" viewBox="0 0 512 512"><title>rsq-icon-original-xbox</title><rect width="512" height="512" rx="113" ry="113" style="fill:#0e7e3f"/><path d="M213.71,195.82c-20.51,24.06-39.31,49.39-54.86,76.93-12.25,21.72-23.14,44.09-21.8,73-15.64-18.8-24.51-37.83-28.79-58.66C97.56,235,111.59,190,148.17,151.57c7-7.3,13.46-8.75,22-3.92,17.14,9.74,31.31,23.11,45.31,36.72C220.74,189.51,216.65,192.37,213.71,195.82Z" style="fill:#fff;fill-rule:evenodd"/><path d="M344.2,374.81c-26.41,19.15-56.18,28.17-89,29q-58.09-1.34-102.41-40.15c-7.77-6.81-8.3-13.83-5.2-22.32,3.86-10.6,10-19.91,16.91-28.7A555.64,555.64,0,0,1,247,227.8c5-4.17,8.49-6.91,15.21-1.29,34.26,28.8,65.28,58.6,91.05,95.75C372.06,349.37,370.58,355.7,344.2,374.81Z" style="fill:#fff;fill-rule:evenodd"/><path d="M378.47,340.25c-.76,1-2.06,1.54-4.54,3.27-2.44-59.79-39.23-100.41-72.29-142.45-9-11.45-8.14-16.75,2.12-25.05,12.64-10.21,24.33-21.61,39-29.11,6.08-3.14,10.73-3.16,16.31,1.62C411.67,193.71,421,284.83,378.47,340.25Z" style="fill:#fff;fill-rule:evenodd"/><path d="M331.6,130c-25.06,1-45.24,10.54-64.62,21.49-8.14,4.6-14.08,5.38-22.46.35-20.22-12.16-41.67-21.66-67.09-21.68C222.14,100.84,290.38,100.45,331.6,130Z" style="fill:#fff;fill-rule:evenodd"/></svg>