<svg xmlns="http://www.w3.org/2000/svg" viewBox="0 0 512 512"><title>rsq-icon-original-instagram-b</title><rect width="512" height="512" rx="113" ry="113" style="fill:#507fa7"/><path d="M401.71,255.8V160.42a48.41,48.41,0,0,0-1.49-11.92,51.14,51.14,0,0,0-37.41-36.91,50,50,0,0,0-11.37-1.32H161.88a61.84,61.84,0,0,0-8.22.5,47.68,47.68,0,0,0-5,1,51.69,51.69,0,0,0-35.45,32.08h0a47.79,47.79,0,0,0-3,16.51V350.73a50.15,50.15,0,0,0,3.09,17.55,51.72,51.72,0,0,0,32.33,31,49.58,49.58,0,0,0,15.38,2.48H350.61a61.72,61.72,0,0,0,7.93-.51,49,49,0,0,0,7.83-1.8,52.21,52.21,0,0,0,34.15-37.12,45.26,45.26,0,0,0,1.17-10C401.78,320.09,401.71,288,401.71,255.8ZM257.72,199c32.42.61,57.61,25.65,57.2,56.91s-27.07,55.58-59.62,55.28C226,310.88,198.73,286.54,199,255,199.37,222.82,225.48,198.4,257.72,199ZM368,351.67c0,11.12-3.52,14.64-14.66,14.64q-97.18,0-194.4,0c-10,0-14.3-3.85-14.33-13.36q-.11-57.91,0-115.81c0-1,.17-2,.32-3.6H171c-8.2,32.43-2,60.93,21.63,84.74,19.79,20,44,27.86,71.87,26.21,44.12-2.62,95.09-46,78.68-111.29h24.42c.13,2.65.33,4.77.33,6.86Q368,295.88,368,351.67ZM367.78,189a11.52,11.52,0,0,1-11.12,11.3c-11.78.3-23.59.26-35.37.05-5.64-.12-10.88-4.33-11.1-9.92-.52-12.31-.51-24.71.1-37,.28-5.69,5.36-9.37,11.29-9.6,5.78-.23,11.58-.05,17.39-.05v0c5.61,0,11.2-.15,16.79.05,6.79.21,11.85,4.85,12.05,11.65C368.11,166.63,368.08,177.83,367.78,189Z" style="fill:#fff;fill-rule:evenodd"/></svg>