<svg xmlns="http://www.w3.org/2000/svg" viewBox="0 0 512 512"><title>rsq-icon-original-dribbble</title><rect width="512" height="512" rx="113" ry="113" style="fill:#ef6898"/><path d="M256.36,107.58a148.42,148.42,0,1,0-.57,296.84c81.67,0,148.6-66.68,148.76-148.08S337.69,107.71,256.36,107.58ZM235,131.83c19.5-3.42,40.69-1.13,59.33,4.33,10.79,3.16,30.48,13.91,41,22.33,3.36,2.7,3.34,2.71-.79,8.83-7,10.41-33.83,28-52.83,37.17-9.47,4.57-9.53,1-15-8.51-4.65-8.05-34.83-54.09-38.33-57.83C224.83,132.83,228.34,133,235,131.83ZM133.33,225.17c4.91-19.78,16.67-41.17,30.83-55.33,3.7-3.7,18.33-18.67,32.33-25.2,4.92-2.29,4.63-2.08,10.1,4.83,12.57,15.87,32.71,50,36.9,55.87,8.41,11.71-1.51,10.86-12,14-30,9-92.23,11.68-92.5,11.67C133.54,231,132.44,228.76,133.33,225.17Zm21.5,107c-15.67-19.33-23.44-44.5-25.5-74.33-.44-6.41,2.21-5.69,6.5-5.33,15.34,1.29,85.67-5,120.17-16.83,2.1-.72,3.24-.73,5.33,4,1.21,2.73,5.33,10.39,6.83,13.58,1.42,3-.51,3.41-11,6.75-23.1,7.36-69.17,35.67-92.5,76.7C161.13,342.91,157.55,335.53,154.83,332.17Zm145.5,42.5c-30.17,12.83-84.17,12-117.5-15.33-3.79-3.11-4.28-4.33-2.33-8.17,5.33-10.47,27.85-34,36.5-41.17,12.9-10.71,44.5-29.26,56.17-31.5,3.33-.64,5-.77,6.33,2.24,6.17,14.43,20,61.6,23.74,84.94C304.3,372.3,303.4,373.36,300.33,374.67Zm78.33-92a136.34,136.34,0,0,1-8.16,25.84c-6.83,14.5-14.5,27.67-39.17,48.78-3.82,3.27-5.17,2.89-6.33-1.61-.25-.56-10-44.33-12.33-50.67-1.09-2.95-9-28.15-9-28.18-1.67-4.49-2.3-6.23,3.5-6.82,18.17-1.83,50.33-.57,66.17,4.17C380.16,276.21,379.5,278.13,378.66,282.66Zm-5.06-29.6-.11,0c-1.1-.26-1.24-.28-.21,0a301,301,0,0,0-70.77-2.5c-7.19.64-8.63.77-10.17-3s-6.91-13.94-7.83-17.17c-.87-3-1.12-4.1,6.17-7.67,22.5-10.67,48.17-27.33,60.33-43.5,2.63-3.5,5.15,1.58,7.67,4.83,10.26,13.27,20.65,38.5,22.78,64.67C381.94,254.73,381.36,254.33,373.6,253.06Z" style="fill:#fff;fill-rule:evenodd"/></svg>