<svg xmlns="http://www.w3.org/2000/svg" xmlns:xlink="http://www.w3.org/1999/xlink" viewBox="0 0 512 512"><defs><linearGradient id="a" x1="256" y1="413.12" x2="256" y2="98.88" gradientUnits="userSpaceOnUse"><stop offset="0" stop-color="#00a5df"/><stop offset="1" stop-color="#ef5586"/></linearGradient><linearGradient id="b" x1="246.98" y1="341.6" x2="246.98" y2="162.75" xlink:href="#a"/></defs><title>rsq-icon-original-itunes</title><rect width="512" height="512" rx="113" ry="113" style="fill:#edeced"/><path d="M256.14,98.88c-85.29-.11-157.13,71.61-157.26,157s71.59,157.15,157,157.28,157.16-71.6,157.27-157S341.51,99,256.14,98.88ZM256,392.49a135.91,135.91,0,0,1-136.5-136.31c-.06-76.17,60.7-136.8,136.93-136.7,75.65.11,136.15,60.91,136.09,136.73A135.89,135.89,0,0,1,256,392.49Z" style="fill-rule:evenodd;fill:url(#a)"/><path d="M320.37,300.57c0,12.75-7.61,20.43-17.91,25.74-10.64,5.48-21.75,6.81-32.27-.37-8.74-6-10.15-16.24-3.8-25.71,7.2-10.72,18.33-14.5,30.34-16.51,2.34-.37,4.78-.29,7.78-.46V204.71c-24.32,4.16-48.13,8.25-72.93,12.51,0,3,0,5.87,0,8.74,0,27.82-1.06,55.7.23,83.47,1,20.8-27,38.87-46.79,29.75-11.09-5.12-14.64-16.29-8.25-27,6.49-10.92,17.27-14.92,29-17.19,3.12-.61,6.35-.78,10.1-1.23V178.29c34.66-5.15,68.9-10.25,104.43-15.54v9Q320.34,236.12,320.37,300.57Z" style="fill-rule:evenodd;fill:url(#b)"/></svg>