<svg xmlns="http://www.w3.org/2000/svg" viewBox="0 0 512 512"><title>rsq-icon-original-delicious</title><rect width="512" height="512" rx="113" ry="113" style="fill:#3970b6"/><path d="M400.57,255.73V161.21c0-24-17.71-44.46-40.6-49a52.65,52.65,0,0,0-9.31-.82h-188a63,63,0,0,0-8.14.49,21.45,21.45,0,0,0-2.84.49c-18.8,3.72-34.17,18.88-38.79,37.19a49.5,49.5,0,0,0-1.44,11.47V350a46.13,46.13,0,0,0,.47,7c.14,1.05.35,2,.49,3a51,51,0,0,0,47.84,40.6H350.57a54.07,54.07,0,0,0,7.21-.48c23.38-3.28,42.72-24.9,42.8-48.55V338.18C400.63,310.71,400.57,283.26,400.57,255.73Zm-13.28,74.89c0,4-.06,8.1-.06,12.12,0,21.43-17.59,41.14-38.83,44a43.11,43.11,0,0,1-6.52.49H261.71c-2-.08-3.17-.35-3.79-1.25a1.28,1.28,0,0,1-.35-.49c-.06-.06-.06-.22-.13-.27a5.6,5.6,0,0,1-.27-1.11,4.15,4.15,0,0,0-.13-.89c-.08-1.09-.08-2.57-.08-4.42q-.09-61.28-.27-122.62-26.44,0-52.89-.14c-17.65,0-35.26-.07-52.91-.07s-25.5-7.87-25.5-25.58c-.08-22.4-.14-44.79-.14-67.29.19-1.23.47-2.47.74-3.72a46.26,46.26,0,0,1,12.8-21.92,44.87,44.87,0,0,1,22.46-11.9c.84-.2,1.68-.27,2.57-.41,1.38-.19,2.82-.35,4.21-.41h80.57c3.88,0,5.87.06,6.9,1.17.08,0,.08.14.24.21a2.33,2.33,0,0,1,.25.49,5.67,5.67,0,0,1,.43,1.36c0,.27.06.49.06.78a17,17,0,0,1,.16,2.14v2q.08,61.6.06,123.3c8.92,0,17.83.08,26.77.08h26.69c17.82.08,35.61.08,53.51.14,1.11,0,2.08,0,3.12.08s1.73.14,2.55.27a14.67,14.67,0,0,1,1.73.27,10.72,10.72,0,0,1,1.95.43,18.16,18.16,0,0,1,4.69,1.71,20.54,20.54,0,0,1,1.87,1.11,18.1,18.1,0,0,1,1.66,1.25c.06,0,.06,0,.06.06.27.21.48.49.76.69a16.65,16.65,0,0,1,3.53,5.41,6.06,6.06,0,0,1,.49,1.11,5,5,0,0,1,.35,1.11c.36,1.17.63,2.34.9,3.59Z" style="fill:#fff;fill-rule:evenodd"/></svg>