<svg xmlns="http://www.w3.org/2000/svg" viewBox="0 0 512 512"><title>rsq-icon-original-apple</title><rect width="512" height="512" rx="113" ry="113" style="fill:#545554"/><path d="M382.17,324.64c-6.86,15.27-10.18,22.09-19.07,35.61-12.36,18.86-29.81,42.37-51.48,42.57-19.21.18-24.18-12.54-50.28-12.38S229.82,403,210.59,402.86c-21.66-.21-38.18-21.42-50.58-40.26C125.36,309.82,121.71,247.92,143.1,215c15.17-23.39,39.16-37,61.69-37,22.9,0,37.32,12.55,56.28,12.55,18.4,0,29.6-12.58,56.12-12.58,20.06,0,41.31,10.92,56.45,29.78-49.62,27.17-41.55,98,8.52,117ZM297.08,156.83c9.64-12.38,17-29.86,14.3-47.7-15.75,1.08-34.16,11.11-44.87,24.15-9.78,11.84-17.86,29.44-14.71,46.55,17.21.49,35-9.76,45.28-23Z" style="fill:#fff;fill-rule:evenodd"/></svg>