<svg xmlns="http://www.w3.org/2000/svg" viewBox="0 0 512 512"><title>rsq-icon-original-google-plus-c</title><rect width="512" height="512" rx="113" ry="113" style="fill:#e24d38"/><path d="M258.72,388.91c-14.28-18.08-32-32.43-50.08-46.43-11.27-8.7-22.82-17.2-31.81-28.42-12.94-16.23-12.23-31.66,2.24-46.49,8-8.21,16.79-15.74,24.95-23.85,10-9.91,20.64-19.17,28-31.45,14.31-24.1,16.45-49.87,10.61-76.72-5.22-24.17-16.42-44.79-36.71-59.77-.77-.57-2-1-1.53-3.4,9.23,0,18.62-.13,28,0a21.55,21.55,0,0,0,17.08-7.17c5.5-5.87,11.05-11.69,16.55-17.56,3.87-4.22,7.74-8.47,12.4-13.48h-4.35c-54.47.21-108.89-.08-163.35.7A178,178,0,0,0,49.25,46.23C33.91,52.07,20.17,60,8.44,70.3A111.85,111.85,0,0,0,0,113V244a112.53,112.53,0,0,0,33.19,23c19.14,8.94,39.53,12.57,60.31,14.73,9.75,1,9.92,1.08,6.92,10.66-6.56,20.76-2.55,39.24,11.45,55.73,1.35,1.61,3.47,2.72,3.8,5.55-8.76.54-17.47,1-26.08,1.67-30,2.29-59.63,6.63-87.35,18.88l-2.24,1V399a111.52,111.52,0,0,0,3.48,27.75,76.66,76.66,0,0,1,13.79-16.34c42.42-38.79,91.84-44.51,144.48-27.21,27.21,9,47.84,27.46,58.43,54.94A75.58,75.58,0,0,1,209.55,512h56.18C289.61,472.33,284.87,422.06,258.72,388.91ZM106.25,255.2c-23.67-5.77-41.84-19.64-55.39-39.42C30.43,186,23.87,153,30.64,117.69,34,100.16,42.82,85.37,56.51,73.62c20.16-17.26,51.28-15.57,74.23,1,19.53,14,32,33.28,40.57,55.28,6.78,17.45,10.66,35.59,10.68,58a88.83,88.83,0,0,1-6.32,32.36C164.07,249.12,137,262.73,106.25,255.2Z" style="fill:#fff;fill-rule:evenodd"/><path d="M484.92,153.61c-10.4-.33-20.8-.09-31.22-.09-10.76,0-21.55.14-32.33-.09-3.85-.07-5,1.16-4.95,5,.15,21.18-.13,42.41.18,63.59.09,5.29-1.63,6.44-6.49,6.13-8.76-.58-17.51-.75-26.3-.79-3.54,0-4.71-1-4.71-4.67-.13-21-.64-42-.55-63,0-5.24-1.63-6.29-6.5-6.25-20.47.26-40.93,0-61.4.21-4,0-5.4-1.05-5.29-5.24q.48-14,0-27.92c-.13-4.23,1.36-5.2,5.36-5.18,20.63.19,41.3,0,61.93.21,4.59,0,5.84-1.29,5.79-5.83-.23-20.64,0-41.29-.18-62,0-4.14.87-5.86,5.44-5.68,9.31.34,18.65.29,27.95,0,3.86-.09,4.95,1.18,4.92,5-.17,20.67,0,41.31-.17,62-.07,4.78.86,6.6,6.21,6.57,20.82-.09,41.63.54,62.47.54,4.61,0,5.84,1.5,5.71,5.9-.2,8.59-.2,17.2.35,25.75C491.46,152.86,489.52,153.75,484.92,153.61Z" style="fill:#fff;fill-rule:evenodd"/></svg>