<svg xmlns="http://www.w3.org/2000/svg" viewBox="0 0 512 512"><title>rsq-icon-original-imdb</title><rect width="512" height="512" rx="113" ry="113" style="fill:#ffcc3d"/><path d="M104.2,324.83c0,1.91.52,4.11-2,5.06H66.37c-1.91-1.29-1.23-3.29-1.23-5-.06-46.64,0-93.27-.1-139.93,0-3.47.68-5.06,4.62-4.95,9.93.25,19.93.21,29.88,0,3.78-.1,4.73,1.29,4.73,4.93Q104.13,254.86,104.2,324.83Z" style="fill:#262526;fill-rule:evenodd"/><path d="M240.8,324c0,4.66-1.27,6-5.86,5.8-7.79-.35-15.58-.33-23.38,0-4,.16-5-1.11-5-5,.16-25.23.16-70.83.16-81,0,0-1.83,0-2.16,2.86-.09.67-3,16.89-4.74,29.7C198,290.17,194,318.2,194,318.53c-.1,3.61.45,8.39-2,10.36-1.91,1.53-11,1.53-11,1.53s-10.55-.23-11.75-1.42c-3.06-3-2-7.28-2.51-11.14q-3.36-23-6.74-45.94c-1.29-8.59-2.45-16.55-3.75-25.18A3.06,3.06,0,0,0,154,243.9v5.36c0,25.07-.08,50.12.1,75.2,0,4.07-1,5.51-5.28,5.36-7.93-.33-15.92-.31-23.88,0-3.9.14-5-1-5-4.93.18-23.07.1-46.15.1-69.21,0-23.58.1-47.15-.1-70.72,0-4,1.25-5,5.06-4.95,13.6.2,27.22.14,40.83,0,3.35,0,4.73.7,5.26,4.56,2.73,20.36,5.94,40.64,9.35,61,2.13-6.62,2.47-13.54,3.37-20.32,1.87-13.87,3.45-27.8,5.16-41.69.27-2.2,1.3-3.5,3.9-3.49q22.12.12,44.3,0c3,0,3.55,1.4,3.53,4-.08,10.79,0,21.58,0,32.38C240.68,252.28,240.6,288.18,240.8,324Z" style="fill:#262526;fill-rule:evenodd"/><path d="M346.17,211.83c-.21-15-6.61-24.91-21.82-29.2a64.73,64.73,0,0,0-15.59-2.24c-15.76-.35-31.52-.14-47.26-.39-3.89-.06-5,1-5,5,.13,46.81.07,93.57.13,140.36,0,1.54-.78,3.37,1,4.56h56.71c1.17-.06,2.34-.06,3.49-.18,21.06-2,27.84-9.88,28.25-27.33C346.81,272.18,346.58,242,346.17,211.83Zm-38.88,80.23c-.14,9.2-2.2,11.24-7.89,12-3.82.45-4-.93-4-3.87.1-15.24,0-30.49,0-45.74,0-14.42-.06-32.15.07-46.57,0-2,.8-3.17,4-2.49,4,.83,8,5.09,8,10.49C307.4,241.51,307.66,266.36,307.28,292.06Z" style="fill:#262526;fill-rule:evenodd"/><path d="M446.82,228.45c0-4.93-.93-9.78-4-14-8-11-27.45-13.05-39.37-4.15-1.64,1.21-3.2,2.51-5.38,4.19,0-10.42-.17-19.87.1-29.3.1-3.91-1-5.3-5-5.2-9.45.23-18.92.25-28.38,0-3.88-.12-4.64,1.27-4.62,4.83.14,46.83.08,93.67.14,140.48,0,1.54-.8,3.39,1,4.58h32.84c1.43-.84,1.72-2.2,2.08-3.72,1.19-5.28,1.27-5.24,5.16-1.7a28.5,28.5,0,0,0,35.59,2.42c8.79-6.1,9.7-15.51,9.84-24.7C447.12,277.6,447,253,446.82,228.45ZM409,302.3c0,3.62,0,7.58-5.47,7.6-4.7,0-5.41-3-5.41-6.53-.06-11.79,0-23.57,0-35.37q0-17.15,0-34.31c0-3.27.16-6.37,4.69-6.7s5.85,2.83,6.12,6.14c.41,5.28.14,10.62.14,15.94C409.07,266.81,409.11,284.57,409,302.3Z" style="fill:#262526;fill-rule:evenodd"/></svg>