<svg xmlns="http://www.w3.org/2000/svg" viewBox="0 0 512 512"><title>rsq-icon-original-snapchat</title><rect width="512" height="512" rx="113" ry="113" style="fill:#f5ea00"/><path d="M417.4,333.5c1,6.52-2.15,13-6.4,15.5-5.75,3.38-14.58,6.74-22.87,8.75-11.87,2.88-11.87,2.88-15.37,13.75s-10.62,11.5-23.44,8.69c-12.54-2.75-31.46.2-49.06,12.81-17.84,12.79-33.62,17.38-47.25,16.38-12.71-.93-27.41-6.69-40.92-16.29-20.33-14.46-33.17-15.33-46.83-12.83-3.12.57-10.25,1.92-14.42,1.33-5.09-.71-9.53-4.86-10.08-8.58-1.26-8.5-5.5-13.75-14.75-14.75-7.23-.78-20.82-6.29-23.89-9.25-17.86-17.25-.76-23.3,3.39-24.5,27.46-8.14,44-25,55.63-48.29,5.93-11.87-.13-12.21-16.88-18.31-7.11-2.59-21.68-10.31-17.95-24.36,2.2-8.29,12.95-15.79,25.7-11.87,17.73,5.45,13.91,4.43,13.67-7.33-.26-12.8.48-25.52,1.42-38.33,2.2-29.66,16.55-48.64,42.62-62.14,10.89-5.63,27.46-10.19,35.13-11.26,6.63-.92,21.17-1.1,36.54,2.77,36.39,9.17,61.25,36.75,65.63,70.63,1.86,14.37,1.33,22.59.25,37-.63,8.59-1.12,12.11,0,11.75,6.4-2.12,15.79-4.72,22.27-3.12,8.63,2.13,14.63,4.25,17,11.88,2.07,6.63-.28,10.88-3.5,14.88-4.12,5.13-17.19,9.43-24.25,12.75-9.7,4.59-12,5.25-7.12,15.38,12.55,26.07,32.88,41.63,52.72,46.72C410.77,324.86,416.38,326.75,417.4,333.5Z" style="fill:#262526"/><path d="M412.73,335.86c.1,5.3-3.23,8.7-8,10.76a130.37,130.37,0,0,1-23.16,7.8c-6.6,1.53-10.63,5-12.47,11.82-2.65,9.82-5.38,11.55-15.2,9.63-20.35-4-38.3.53-55.3,12.34-31.22,21.71-52.8,21.41-84.53.16-2.47-1.64-4.85-3.37-7.36-4.89a60,60,0,0,0-32.28-9.13c-6.17.11-12.15,1.3-18.18,2.24-5.51.86-10.13-1.15-11.13-6.46-2.1-11.38-9.38-15.58-19.75-17.07-4-.57-7.76-2.45-11.65-3.68-6.86-2.2-12-6.2-14.46-13.21v-2.72c3.44-2.18,6.85-4.45,10.82-5.59,26.25-7.79,43.87-25.3,55.55-49.46,5.51-11.42,3.71-16.09-8.25-20.85-6.73-2.66-13.74-4.72-19.74-9-4.19-3-8-6.4-6.52-12.29,1.54-6.24,6-9.33,12.16-10.28,4.37-.66,8.5.45,12.64,1.77,13.3,4.23,15.91,2.4,15.13-11.66a286.78,286.78,0,0,1-.09-36.6c2.1-28.36,16.09-48.29,41-61.2,10.41-5.38,26.78-9.69,32.83-10.7,8.67-1.44,20.17-1.27,35.67,2.73,34.75,9,57.66,34,61.91,69.29,1.65,13.75.32,27.61-.71,41.39-.6,8.22,2.46,10.32,10.33,7.66,5.89-2,11.76-3.18,18-1.75,5.51,1.31,10.83,3,12,9.43s-3.44,10.13-8.32,12.69c-6.61,3.45-13.66,6.06-20.42,9.23-9.27,4.39-11.41,9.43-7,18.57,12.08,24.89,29.82,43.65,57.39,51.37C407.73,329.36,412.64,330.34,412.73,335.86Z" style="fill:#fff"/></svg>