<svg xmlns="http://www.w3.org/2000/svg" viewBox="0 0 512 512"><title>rsq-icon-original-spotify</title><rect width="512" height="512" rx="113" ry="113" style="fill:#50b855"/><path d="M357.48,351.4a11.92,11.92,0,0,1-.31,1.46l-.22.71a4.85,4.85,0,0,1-.25.75,6.07,6.07,0,0,1-.28.72c-.11.25-.25.52-.39.78s-.3.52-.46.78a4.55,4.55,0,0,1-.52.78,16.13,16.13,0,0,1-5.36,4.72,7,7,0,0,1-.64.31,5.37,5.37,0,0,1-.57.25s-.07,0-.08,0c-.22.1-.44.16-.66.25a7.73,7.73,0,0,1-.83.29c-.27.07-.55.14-.84.2a3.06,3.06,0,0,1-.61.13l-.55.07h-.12c-.16,0-.31.05-.48.06l-.72,0a12.13,12.13,0,0,1-2.23-.17,5,5,0,0,1-.65-.17l-.53-.2c-.16-.09-.31-.14-.45-.23a34.55,34.55,0,0,1-3.23-2.28,1.6,1.6,0,0,0-.39-.28c-.89-.51-1.79-1-2.68-1.51-1.76-1-3.55-2-5.34-3-2.7-1.45-5.4-2.79-8.12-4.07-1.82-.86-3.66-1.71-5.5-2.53s-3.67-1.59-5.52-2.33l-2.79-1.14c-1.16-.46-2.32-.91-3.51-1.35l-2.91-1.07a4.93,4.93,0,0,1-.6-.2v0q-3.54-1.24-7.1-2.37c-3.79-1.23-7.62-2.33-11.5-3.33l-.66-.17c-1.72-.43-3.46-.87-5.2-1.27l-2.95-.66c-1.46-.34-2.93-.66-4.4-1s-3-.59-4.45-.85c-2-.37-4-.71-6-1s-4-.61-6-.89-4-.52-6.07-.76c-35.13-4-69.6.21-104,7-1,.21-2,.46-3.06.71-.69.16-1.35.29-2,.43a20.73,20.73,0,0,1-2,.28,4.48,4.48,0,0,1-.95,0,6.68,6.68,0,0,1-1.25,0c-.31,0-.65-.08-1-.13s-.65-.13-1-.22-.66-.21-1-.34a18.4,18.4,0,0,1-4-2.1h0c-.56-.45-1.1-.9-1.6-1.34-.32-.32-.62-.62-.89-.94,0,0,0,0,0,0a1.42,1.42,0,0,1-.14-.16,3.18,3.18,0,0,1-.43-.58c-.06-.05-.09-.08-.11-.14s-.05-.09-.07-.12-.24-.36-.34-.53a3.88,3.88,0,0,1-.24-.39.69.69,0,0,1-.08-.15c-.05-.09-.09-.2-.14-.29-.15-.28-.28-.58-.41-.88h0a10.2,10.2,0,0,1-.4-1.21,8.29,8.29,0,0,1-.3-1.25.56.56,0,0,1-.06-.25c-.07-.39-.1-.76-.14-1.16a16.5,16.5,0,0,1-.06-1.86,16.76,16.76,0,0,1,.22-2.33,10.39,10.39,0,0,1,.22-1,4.55,4.55,0,0,1,.2-.69,4.93,4.93,0,0,1,.22-.7,9.32,9.32,0,0,1,.65-1.47c.2-.39.42-.77.67-1.16a12.25,12.25,0,0,1,3.8-3.64,14.4,14.4,0,0,1,4.31-1.69c1.72-.39,3.45-.8,5.18-1.16l7.84-1.62,6.78-1.29q7.83-1.42,15.93-2.58l4-.55h.05c1.37-.18,2.74-.34,4.13-.52s2.75-.3,4.15-.47,2.8-.3,4.21-.43c1.21-.14,2.39-.25,3.59-.34.85-.08,1.68-.16,2.54-.2,3.49-.27,7.07-.51,10.71-.72l3.77-.17c1.25-.07,2.53-.11,3.82-.14s2.56-.08,3.87-.11c4.12-.11,8.33-.13,12.64-.11a231.28,231.28,0,0,1,31.08,1.82c2.41.32,4.86.64,7.29,1,6.11,1,12.27,2.18,18.41,3.63q3.71.87,7.43,1.87c1.84.48,3.71,1,5.56,1.56s3.71,1.09,5.55,1.69q3.7,1.17,7.43,2.48c2.47.86,4.93,1.77,7.4,2.73s4.93,1.92,7.37,3c1,.38,2,.83,3,1.29q3.45,1.49,6.82,3.07l1.81.87a1.43,1.43,0,0,0,.33.14c.91.44,1.79.86,2.68,1.32l3.64,1.83c1.2.61,2.41,1.24,3.62,1.9.88.47,1.75.94,2.61,1.45s1.95,1.14,2.89,1.74c0,0,0,0,0,0,.72.43,1.45.92,2.15,1.41s1.64,1.12,2.44,1.7l.78.63.43.36c.21.24.44.42.63.63a10.85,10.85,0,0,1,.78.88c.26.33.48.62.7.92s.4.64.59,1a9.27,9.27,0,0,1,.5,1c.17.38.31.78.45,1.16s.18.61.26.93a9.43,9.43,0,0,1,.26,1.46A13.88,13.88,0,0,1,357.48,351.4Zm27.64-60.3a10.29,10.29,0,0,1-.44,1.19,15.47,15.47,0,0,1-1.82,3.36c-.18.27-.37.52-.57.77s-.38.49-.58.72-.45.49-.7.73-.62.59-.94.87a16.47,16.47,0,0,1-2.79,1.89c-.23.09-.45.22-.67.32a16.13,16.13,0,0,1-2.36.91,17.06,17.06,0,0,1-7.16.53,18.74,18.74,0,0,1-3.54-.82A22.34,22.34,0,0,1,360,300c-5.28-2.95-10.6-5.83-16-8.5q-2.72-1.35-5.43-2.65l-2.73-1.28c-2.11-1-4.24-1.9-6.4-2.85l-2.59-1.07c-1.15-.47-2.32-.95-3.49-1.39s-2.11-.82-3.18-1.2c-1.3-.5-2.62-1-3.93-1.43-3.36-1.14-6.72-2.24-10.1-3.28s-6.78-2-10.18-2.91-6.82-1.75-10.25-2.54c-1.88-.43-3.77-.85-5.65-1.26-1-.2-2-.41-2.95-.59s-1.76-.37-2.64-.52l-3.93-.73c-.3,0-.59-.11-.91-.15-1.5-.27-3-.54-4.5-.77q-5.27-.87-10.58-1.55c-1.74-.24-3.49-.44-5.25-.64s-3.41-.39-5.14-.55a4.13,4.13,0,0,0-.49,0c-1.55-.18-3.12-.32-4.67-.45-1.85-.18-3.7-.32-5.55-.45a294.33,294.33,0,0,0-100.43,10c-7.43,2-14.6,1.28-19.87-5.29a17.2,17.2,0,0,1-1.42-19.06c.23-.38.48-.77.74-1.13s.31-.45.48-.67.56-.74.85-1.09.78-.84,1.18-1.27a16.17,16.17,0,0,1,1.28-1.14,15,15,0,0,1,1.38-1,17.44,17.44,0,0,1,3.35-1.7,2.52,2.52,0,0,1,.61-.2c.29-.12.59-.21.89-.32,1.36-.34,2.71-.73,4.08-1.08q4.1-1.11,8.2-2.07c1.37-.34,2.73-.67,4.1-1s2.76-.62,4.12-.91c1.89-.42,3.78-.8,5.69-1.18,3.79-.75,7.59-1.42,11.39-2,1.92-.32,3.83-.59,5.75-.87s3.83-.51,5.75-.76,3.85-.45,5.77-.64,3.62-.37,5.46-.5a4.77,4.77,0,0,1,.62-.05c1.85-.17,3.68-.29,5.52-.42,8.87-.53,17.7-1.2,26.59-1,57,.65,110.92,13,160.63,41.77a23.15,23.15,0,0,1,2.3,1.5,19.52,19.52,0,0,1,2,1.64c.33.28.63.57.9.85s.6.65.85,1a10.09,10.09,0,0,1,.7.88c.25.3.46.63.67.93s.46.74.66,1.12a16.9,16.9,0,0,1,.87,1.93c.12.32.23.62.32.92a.8.8,0,0,0,0,.16,8.8,8.8,0,0,1,.27,1.05s0,0,0,.07a15.72,15.72,0,0,1,.29,2.08A19.46,19.46,0,0,1,385.11,291.11Zm29.6-67.72c-6,8.65-17,11.81-26.64,6.68-3.79-2-7.55-4.07-11.36-6q-3.79-2-7.65-3.84l-3.88-1.82c-2.59-1.21-5.24-2.31-7.9-3.36-3.4-1.31-6.79-2.56-10.21-3.74l-5.15-1.72c-1.73-.57-3.43-1.12-5.18-1.65-1.16-.35-2.34-.73-3.53-1.05a5.14,5.14,0,0,0-.64-.21c-.76-.22-1.54-.43-2.3-.67-1.29-.38-2.61-.75-3.9-1.1-3.47-1-7-1.87-10.47-2.71-1.32-.33-2.63-.63-3.93-.92s-2.66-.62-4-.9q-4-.89-7.94-1.66-5.31-1-10.65-1.93-8-1.36-16.14-2.4a435,435,0,0,0-81.13-3,342.75,342.75,0,0,0-70.65,11.77c-9.09,2.5-16.22.1-21.11-4.67-.39-.38-.78-.79-1.14-1.2s-.71-.86-1.05-1.29-.64-.88-1-1.36-.6-.95-.88-1.43c-.14-.24-.27-.5-.4-.74-.26-.5-.5-1-.74-1.54-.11-.25-.22-.51-.33-.77-.21-.53-.41-1.07-.59-1.59-3.88-11.45,3-22.71,15.05-26.36q5.82-1.73,11.67-3.22a304.85,304.85,0,0,1,31.56-6.21q4-.59,8-1c1.33-.16,2.66-.33,4-.47,2.54-.28,5.11-.54,7.68-.75a1.39,1.39,0,0,1,.33-.05c.92-.07,1.85-.18,2.79-.29,1.18-.16,2.36-.29,3.57-.41l1.86-.13a68.32,68.32,0,0,1,7-.5c.83-.09,9.72-.5,10.06-.52s4.55,0,6.8-.12c9-.36,18.07-.17,27.18.14,5.58.2,11.14.45,16.68.8,3.69.22,7.37.47,11,.78s7.35.65,11,1,7.3.78,10.95,1.24l5.45.72c3.62.49,7.24,1,10.84,1.64a366.12,366.12,0,0,1,42.73,9.52q5.26,1.51,10.49,3.22c1.73.57,3.48,1.13,5.2,1.72q10.4,3.56,20.62,7.87c3.41,1.45,6.8,2.94,10.16,4.52q7.59,3.56,15.08,7.57a81,81,0,0,1,7,4.29c.73.51,1.47,1,2.2,1.57a6.68,6.68,0,0,1,.86.66,7,7,0,0,1,.79.72C419.23,202.43,421.42,213.77,414.71,223.39Z" style="fill:#fff;fill-rule:evenodd"/></svg>