<svg xmlns="http://www.w3.org/2000/svg" viewBox="0 0 512 512"><title>rsq-icon-original-feedburner</title><rect width="512" height="512" rx="113" ry="113" style="fill:#1e70b7"/><path d="M389.36,327.94a53.5,53.5,0,0,0-12.71-12.69c-6.87-5.16-14.51-9-22.3-12.44-1.46-.66-2.34-1.46-2-3.23,1.81-10.05,1.14-20.09-.25-30.1-2.8-20.22-11.12-37.68-25.71-52-9.73-9.56-21-17-32.64-23.86-.78-.45-1.62-1-2.52-.39s-.49,1.54-.4,2.34c1.54,11,1.68,22.05-1.36,32.88-2.64,9.35-7.08,17.68-14.55,24-11.36,9.66-24.55,11.77-38.83,9-2.7-.54-2.92-1.08-1.56-3.49,5.84-10.22,11.26-20.69,14.58-32.08,2.91-10,4.33-20.14,2.37-30.6-1.63-8.65-5.22-16.47-9.31-24.14-4-7.47-8.52-14.67-11.39-22.67a52.71,52.71,0,0,1-3.2-16.87,64.61,64.61,0,0,1,3.15-21.38c.27-.83.79-1.83-.1-2.5s-1.74.23-2.4.77c-2.78,2.4-5.66,4.72-8.31,7.27a180.9,180.9,0,0,0-28.26,36.34c-12.37,20.53-22.23,42.22-28.54,65.38-3.94,14.47-6.62,29.14-6.69,44.17a185.4,185.4,0,0,0,3.51,36.77c.55,2.79.33,3.14-2.23,4.34-3.65,1.73-7.31,3.34-10.83,5.25-9.3,5-17.8,11-24.13,19.69-7.67,10.45-7.95,22.32-.85,33.12,5.68,8.63,13.7,14.55,22.44,19.6,12.84,7.43,26.77,12.31,41.11,15.86a290.91,290.91,0,0,0,71.82,8.29,290.53,290.53,0,0,0,48.87-4.05c21.34-3.62,42.07-9.18,61.12-19.86,7.88-4.42,15.14-9.72,20.79-16.91C397.19,352.06,397.63,340.19,389.36,327.94Zm-60.84-28.49a64,64,0,0,1-15.95,41.29c-12.82,14.7-29.52,22-48.45,24.95-12,1.85-24.13,1.89-35.88-1.89-19.15-6.1-32.86-18.34-40.75-36.9-5.85-13.76-6.81-28.18-4.78-42.82,2.37-16.88,8.57-32.43,17-47.15a4.71,4.71,0,0,1,.78-1.11c.09-.13.31-.16.5-.26.62.81.28,1.66.16,2.45-2.53,17-.28,33.29,8,48.49,6.34,11.65,15.21,20.75,28.17,25,11.84,3.82,22.91,1.32,33.19-5.06,9.41-5.81,15.81-14.35,20.94-23.95A128.41,128.41,0,0,0,302.89,252c.11-.42.21-.87.35-1.3.52-1.52,1.2-1.7,2.62-.64a43.54,43.54,0,0,1,6.6,6.27C323.25,268.69,328.95,283,328.51,299.45Z" style="fill:#fff;fill-rule:evenodd"/></svg>