<svg xmlns="http://www.w3.org/2000/svg" viewBox="0 0 512 512"><title>rsq-icon-original-yahoo</title><rect width="512" height="512" rx="113" ry="113" style="fill:#943c95"/><path d="M413.54,176.87c-2.12,3.26-3.91,6.17-5.86,9-2.6,3.75-5.21,7.49-8,11.09a5,5,0,0,1-3.35,1.82c-6.2.17-12.39.26-18.57.05-8.45-.29-15.71,2.44-22.59,7.24a686.94,686.94,0,0,0-55.23,43.24c-8.16,7.07-15.72,14.9-23.52,22.45A20.36,20.36,0,0,0,269.89,288c.71,17.68,1,35.38,1.36,53.08.06,2.73,1,3.48,3.72,3.53,14.93.2,29.86.62,44.82,1,.58,0,1.14.12,2.06.21-.24,5.09-.45,10.15-.67,15l-155.72,1c.82-4.89,1.6-9.63,2.46-14.84,1.27,0,2.46.05,3.66,0,10.62-.52,21.3-.57,31.87-1.78,10-1.13,12-3.54,12.16-13.58.21-16.43.05-32.91-.68-49.31-.17-3.56-3.06-7.31-5.45-10.38-16.28-20.93-32.39-42-49.22-62.46-10.68-13-22.51-25-33.83-37.41a7.14,7.14,0,0,0-5.77-2.41c-14.76.12-29.5.08-44.27.09V147.48c1.13,0,2.27.13,3.42.13q75.95,0,152,0c4.7,0,4.48,0,4.17,4.61-.32,4.46-.12,8.95-.15,13.43,0,1.21,0,2.43,0,3.93h-48c20.64,30.26,43.37,58.12,65.15,87.44,21.21-19.22,42.34-38.33,64.07-58-1.85-.09-2.82-.17-3.83-.17-10.56,0-21.14,0-31.71,0-1.66,0-2.56-.34-3-2.15-1.33-5.86-2.89-11.62-4.33-17.44a17.31,17.31,0,0,1-.15-2.43Z" style="fill:#fff;fill-rule:evenodd"/><path d="M433.94,226.47c-3.86,15-7.69,29.74-11.52,44.56q-6.38,24.7-12.75,49.39c-.34,1.3-.38,2.64-2.39,2.43-6.41-.61-12.85-1.13-19.8-1.74V221.78Z" style="fill:#fff;fill-rule:evenodd"/><path d="M410,339.43c-1.1,7.51-2.21,14.94-3.37,22.75-7.22-.57-14.1-1.06-21-1.7a2.26,2.26,0,0,1-1.5-1.56c-.08-7.23-.05-14.43-.05-21.82C392.66,337.87,401.1,338.62,410,339.43Z" style="fill:#fff;fill-rule:evenodd"/></svg>