<svg xmlns="http://www.w3.org/2000/svg" viewBox="0 0 512 512"><title>rsq-icon-original-bloglovin</title><rect width="512" height="512" rx="113" ry="113" style="fill:#262526"/><path d="M270.4,253.77c23.76-14.67,34.85-34.25,29.34-60.49-4.91-23.74-21.32-40-44.47-41.36-42.25-2.63-84.76-.75-126.87-.75V363.51c40.1,0,78.85.34,117.53-.13,29.46-.34,51.8-16.76,58.12-41.32C311.24,293.88,300.47,271,270.4,253.77Zm-96.26-63.64c20.31,0,38.54-.81,56.71.26,13.85.82,23.68,7.74,23,23.61-.61,15.14-10.63,20.18-23.68,20.53-18.17.54-36.4.13-56,.13Zm62,132.73c-20.12,1.08-40.37.28-62,.28V276.58c21.73,0,38.37-1.07,59.91.38,7.46.5,24.13,4.86,24.19,23.7C258.28,314.52,249,322.13,236.09,322.86Z" style="fill:#fff;fill-rule:evenodd"/><path d="M349.45,238.1c-4.44-3.84-9.14-7.87-13.93-12,7.61-9.62,14.34-18.17,17.5-22.21-9.22-12.64-21.06-22.13-22.07-32.7-.67-7.33,12.65-21.6,21.13-22.75s22.21,8.08,27.11,16.49C391.43,186.23,377.24,218.73,349.45,238.1Z" style="fill:#fff;fill-rule:evenodd"/></svg>