<svg xmlns="http://www.w3.org/2000/svg" viewBox="0 0 512 512"><title>rsq-icon-original-steam</title><rect width="512" height="512" rx="113" ry="113" style="fill:#262526"/><path d="M339.32,108.4c-31.08-3.44-59.12,6.86-77.55,26.77a81,81,0,0,0-15.2,23.61,86.89,86.89,0,0,0-5.31,17.42c-2.62,13.32-7.19,24.89-14.59,35.52-1.14,1.68-2.35,3.36-3.7,5-3,3.83-5.91,7.87-8.61,11.91-2.76,3.83-5.38,7.73-8,11.63-11.71,17.23-21.05,37.48-47.42,34.78-1.41-.13-2.89,1.08-4.37,1.08-7.6,0-16,2-22.54-.61q-66.18-26-132-52.67v83.69q51.65,20.68,103.17,41.7a24.2,24.2,0,0,1,8.14,5.78,27.68,27.68,0,0,1,5.51,7.94,74.6,74.6,0,0,0,10.76,17.9c11.5,14.33,27.51,22,47.89,22.88,28,1.08,51.45-11.64,60.19-37.34,7.26-21.06,21.79-31.35,37.26-42.85,12.24-8.95,24-18.7,36.93-26.44,10.09-6.05,21.26-11.64,32.55-13.79,42.17-7.87,73.59-44.6,73.18-87.66C415.19,151.05,381.49,112.91,339.32,108.4ZM209.71,372.11a40.21,40.21,0,0,1-10.56,7.33c-16,8-33.43,6.6-46.74-2.42a46,46,0,0,1-10.16-9.36c6.72.95,13.78,2.56,20.92,3.63A74.33,74.33,0,0,0,180,372.45a27.45,27.45,0,0,0,17.55-7.53c1.14-1.08,2.22-2.3,3.3-3.5.47-.67,1-1.28,1.48-2a44.13,44.13,0,0,0,2.63-4.24,51.08,51.08,0,0,0,3.16-7.06c3.16-8.88,3.63-16.88,1-24.35-2.36-6.79-7.2-13.12-14.73-19.24-1.35-1.07-2.76-2.15-4.24-3.16a129.65,129.65,0,0,0-16.55-9.89,55.74,55.74,0,0,1,19.11,2.22,9.16,9.16,0,0,1,1.81.6,29.42,29.42,0,0,1,5.25,2.15,38.47,38.47,0,0,1,11.7,8.41,10.89,10.89,0,0,1,1.21,1.28c.81.94,1.55,1.89,2.28,2.76s1.41,2,2,3a48.8,48.8,0,0,1,4.1,8.4c.41,1.21.81,2.42,1.14,3.7C227.26,342.1,222.16,360.47,209.71,372.11ZM325.87,253.84a55.86,55.86,0,0,1-24-5.65A59.2,59.2,0,0,1,268.7,195a58.07,58.07,0,0,1,14.93-38.41,59.46,59.46,0,0,1,16.14-12.72,56.09,56.09,0,0,1,27.11-6.59c32.62.47,59.86,27.45,59.25,58.73C385.46,227.88,358.08,254.11,325.87,253.84Z" style="fill:#fff;fill-rule:evenodd"/><path d="M375.25,194.57a46,46,0,0,1-3.78,18.67,43.87,43.87,0,0,1-3.93,7.25A45.61,45.61,0,0,1,359.3,230c-.66.59-1.3,1.14-2,1.67a20.93,20.93,0,0,1-2.07,1.55,25.18,25.18,0,0,1-2.14,1.49A24.39,24.39,0,0,1,351,236a.52.52,0,0,1-.26.17c-.72.39-1.45.76-2.16,1.14s-1.59.76-2.38,1.13-1.67.67-2.47,1a41.88,41.88,0,0,1-4.79,1.47c-.68.2-1.36.37-2.06.5-.54.1-1.08.24-1.67.31a15.06,15.06,0,0,1-1.63.28l-1.93.24a7.1,7.1,0,0,1-.72.05c-.53.07-1.09.07-1.64.13-.71.07-1.43.07-2.17.07h-.8c-.87,0-1.72,0-2.53-.05s-1.65-.08-2.49-.17-1.39-.12-2.12-.24c-.89-.09-1.77-.26-2.69-.44-.63-.12-1.27-.21-1.88-.38a45.78,45.78,0,0,1-7.37-2.35,15.34,15.34,0,0,1-1.49-.66,30.72,30.72,0,0,1-4.5-2.38c-.55-.29-1.14-.66-1.68-1s-1.21-.83-1.84-1.29a43.17,43.17,0,0,1-5-4.32c-.52-.51-1-1.08-1.49-1.6,0-.05,0-.05,0-.05-1-1.09-1.9-2.23-2.8-3.41,0,0,0,0,0,0-.86-1.22-1.65-2.48-2.41-3.76a45.62,45.62,0,0,1-3-6.17c-.54-1.44-1-2.88-1.45-4.38-.25-.76-.44-1.56-.63-2.3a.44.44,0,0,0,0-.08c-.35-1.54-.64-3.11-.87-4.68-.08-.67-.17-1.33-.22-2a7.08,7.08,0,0,1-.09-1.18q-.2-2.19-.2-4.46c0-1.71.09-3.39.22-5a49.12,49.12,0,0,1,2.5-11.62c.22-.76.51-1.47.78-2.19.59-1.41,1.17-2.8,1.88-4.12.55-1,1.09-2,1.69-3,.5-.77,1-1.53,1.54-2.3s1.09-1.5,1.62-2.21a1,1,0,0,0,.18-.21c.62-.75,1.23-1.45,1.86-2.13.12-.14.29-.3.38-.42.63-.66,1.27-1.26,1.91-1.91a2.58,2.58,0,0,1,.2-.2c.69-.59,1.34-1.18,2-1.75.05-.05.13-.08.19-.13a25.55,25.55,0,0,1,2.32-1.72,22.41,22.41,0,0,1,2.58-1.67c.87-.53,1.76-1,2.68-1.49.67-.34,1.34-.67,2.05-1,.38-.22.83-.36,1.25-.55a40.21,40.21,0,0,1,4.53-1.62,18.51,18.51,0,0,1,1.88-.49,45.18,45.18,0,0,1,5-1c.46-.05,1-.11,1.38-.13A15,15,0,0,1,322,148a5,5,0,0,1,.65,0c1.08-.08,2.12-.13,3.21-.13a46.91,46.91,0,0,1,8.75.79c.54.05,1.1.17,1.6.25a1.24,1.24,0,0,0,.32.05c.78.21,1.57.37,2.34.58s1.64.46,2.45.71,1.54.54,2.31.8a.67.67,0,0,1,.19.09c.67.24,1.35.53,2,.78s1.08.46,1.62.73,1.22.55,1.82.87,1.39.74,2.06,1.12a39.47,39.47,0,0,1,4.5,2.94c.44.32.88.63,1.28,1a47.19,47.19,0,0,1,5.15,4.63c.78.81,1.53,1.68,2.3,2.58s1.41,1.76,2.09,2.69c0,0,0,0,0,0,.66.93,1.27,1.89,1.86,2.86s1.16,1.95,1.7,3a45.71,45.71,0,0,1,4.37,13.16,32.2,32.2,0,0,1,.49,4.5,3.78,3.78,0,0,1,.08.69C375.21,193.29,375.25,193.94,375.25,194.57Z" style="fill:#fff;fill-rule:evenodd"/></svg>