<svg xmlns="http://www.w3.org/2000/svg" viewBox="0 0 512 512"><title>rsq-icon-original-vine</title><rect width="512" height="512" rx="113" ry="113" style="fill:#00b48d"/><path d="M385,256.81c-.06,10.67-.06,21.28,0,31.94a1.56,1.56,0,0,1-1.48,1.82,160.19,160.19,0,0,1-32,3.58,2.41,2.41,0,0,0-2.43,1.55C338.17,318.27,324.27,338.8,308.4,358a298.07,298.07,0,0,1-29.79,31.34,74.31,74.31,0,0,1-13,9.92q-13.57,7.71-27,0c-8.64-4.93-16-11.47-22.89-18.63-12.36-12.63-22.62-26.88-31.67-42a363.28,363.28,0,0,1-28.23-60.85A499.64,499.64,0,0,1,139,220.48c-4.25-18.24-7.63-36.6-10.33-55.17-.54-3.58-1-7.16-1.56-10.74-.19-1.35.27-1.55,1.42-1.49h23.57c7.7,0,15.46.07,23.16-.07,1.42,0,1.9.47,2,1.75,1.21,11,2.84,22,4.72,32.89a485.11,485.11,0,0,0,12.23,53.42,336.57,336.57,0,0,0,27,66.32,305.61,305.61,0,0,0,32,47.07c.88,1.15,1.34.95,2.22.06a276,276,0,0,0,39.71-52.47c3.17-5.48,6.21-11.08,9.18-16.69.41-.8.68-1.41-.47-2-21.88-11.75-36.27-29.91-45-52.88a121.54,121.54,0,0,1-7-29.65,117.31,117.31,0,0,1,.07-28.37c2.7-19.85,10.13-37.28,26.28-50.11a61.13,61.13,0,0,1,30.38-12.7c12.42-1.62,24.71-.94,36.61,3.17,15.12,5.13,25.87,15.06,32.48,29.58,4.31,9.59,6.27,19.65,6.88,30.05a130.89,130.89,0,0,1-7,50.79c-.74,2.23-1.75,4.32-2.57,6.55A1.75,1.75,0,0,1,373.7,231c-9.32,1.62-18.51,1.42-27.35-2.36A33,33,0,0,1,333,218.52a3.11,3.11,0,0,1-.54-3.31c3-10.47,5.13-21.07,5.07-32-.14-7.15-.95-14.18-4.32-20.66-5.88-11.41-20.6-12.76-28.5-2.63-3.71,4.79-5.47,10.39-6.21,16.21-2.16,17.29-.06,34,8.31,49.43,9.18,16.95,23.57,27,42.41,30.79,11.41,2.3,22.76,1.56,34.11-.81C384.64,255.26,385,255.46,385,256.81Z" style="fill:#fff;fill-rule:evenodd"/></svg>