<svg xmlns="http://www.w3.org/2000/svg" viewBox="0 0 512 512"><title>rsq-icon-original-bandcamp</title><rect width="512" height="512" rx="113" ry="113" style="fill:#61929c"/><path d="M342.48,239.62C331.4,226,306,222.08,292.09,236.5a2,2,0,0,1-2.19.88v-37.7H137.29c-2.22,5.41-5.5,10.28-8.39,15.33q-25.46,44.83-51,89.57c-.7,1.21-1.51,2.38-2.28,3.54v1.32q65.09,0,130.14.12c3.47,0,4.67-2,6-4.39q28.24-49.64,56.53-99.28c.59-1,1.21-2,2-3.3,1,1.39.69,2.72.69,3.89q0,48.35,0,96.72c0,1.28.05,2.58,0,3.89,0,2,.88,3,2.92,3h12c2,0,3-.87,2.9-3s0-4,0-6.45c10.66,12.13,23.78,13.1,37.76,10.18,6.57-1.35,11.86-5.14,16.08-10.34C355.63,284.59,355.41,255.53,342.48,239.62ZM328.4,288.7c-7.66,11.29-25,11.77-33.18.88-4.42-5.87-6-12.59-5.78-20.3a32.31,32.31,0,0,1,3-15.3,20.58,20.58,0,0,1,35.31-3.41C335,260.5,335.3,278.5,328.4,288.7Z" style="fill:#fff"/><path d="M436.14,282.5c-3.14,14.85-11.8,25.52-26.61,28.57-13.56,2.78-26.34,1.21-37.25-8.09-8.31-7.07-11.84-16.64-12.84-27.18-1-10.31.43-20.35,5.48-29.53,6.67-12.2,17.57-17.81,31-18.81a45.36,45.36,0,0,1,23.39,4c9,4.29,14.61,11.3,16.67,21.06.86,4.09.46,4.51-3.67,4.54-1.83,0-3.65,0-5.5,0a22,22,0,0,0-2.27,0c-4.35.62-6.82-.54-8.49-5.3-2.81-8.09-12.77-11.42-22.62-8.66a17.41,17.41,0,0,0-11.8,9.86c-4.92,11.12-5.17,22.45-.08,33.56a18.67,18.67,0,0,0,18.68,10.94c8.4-.8,14.36-5.66,16.58-14.14.82-3.14,2.22-4.22,5.36-4,3.78.23,7.57.14,11.36,0C436.06,279.25,436.55,280.42,436.14,282.5Z" style="fill:#fff;fill-rule:evenodd"/></svg>