<svg xmlns="http://www.w3.org/2000/svg" viewBox="0 0 512 512"><title>rsq-icon-original-stumbleupon</title><rect width="512" height="512" rx="113" ry="113" style="fill:#0c78bd"/><path d="M276.88,201.35c0-1.23,0-2.43,0-3.65a28.26,28.26,0,0,0-.26-3.11,19.16,19.16,0,0,0-1-3.9,21.09,21.09,0,0,0-1.67-3.56,20.34,20.34,0,0,0-2.93-3.77,5,5,0,0,0-.68-.67,14.83,14.83,0,0,0-1.43-1.21h0a17.87,17.87,0,0,0-2.39-1.56c-.27-.16-.55-.31-.84-.46a17,17,0,0,0-1.8-.74A19.83,19.83,0,0,0,257,177.5,19.61,19.61,0,0,0,242.27,184a15.62,15.62,0,0,0-1.19,1.49,11.35,11.35,0,0,0-1.08,1.6c-.33.55-.64,1.12-.92,1.71s-.54,1.17-.78,1.8v0a21.35,21.35,0,0,0-1.23,7c-.16,21.16,0,42.37,0,63.55h-.24c0,19.3,0,38.54,0,57.85a80.66,80.66,0,0,1-1.17,13.52,88.47,88.47,0,0,1-2.34,9.79c-.33,1.09-.68,2.16-1.06,3.19,0,0,0,0,0,0-.4,1.14-.81,2.24-1.27,3.34s-.91,2.19-1.4,3.27q-1.48,3.27-3.21,6.39l-.89,1.55c-1.51,2.57-3.13,5-4.89,7.43-12.32,16.78-30.68,29.1-51.74,33a87.32,87.32,0,0,1-50.12-5.1c-1.14-.46-2.25-1-3.36-1.48-.58-.27-1.13-.56-1.69-.81q-1.63-.84-3.24-1.73c-2.16-1.2-4.23-2.5-6.27-3.86-1-.68-2-1.42-3-2.15h0c-1.49-1.11-2.91-2.26-4.3-3.46l-1.4-1.22c-1.38-1.22-2.7-2.51-4-3.82-.86-.88-1.71-1.79-2.52-2.71-1.23-1.38-2.44-2.81-3.59-4.28a88.67,88.67,0,0,1-17.46-40.75,84.88,84.88,0,0,1-.93-11.35c0-1.28,0-2.53,0-3.81,0-2.4,0-4.83,0-7.23-.06-12.66,0-25.28-.08-38a9,9,0,0,1,.25-2.56,2.44,2.44,0,0,1,.75-1.26,3.33,3.33,0,0,1,1.92-.77c.39,0,.84-.05,1.34-.05q28.65.24,57.29,0c1.68,0,2.72.3,3.29,1a1.13,1.13,0,0,1,.2.29,5.83,5.83,0,0,1,.56,3q-.14,19.21-.07,38.39c0,2.61,0,5.22.06,7.85a30,30,0,0,0,.26,4,28.49,28.49,0,0,0,.76,3.65,18.78,18.78,0,0,0,5.12,8.54c.42.39.83.74,1.27,1.09a20.67,20.67,0,0,0,2.81,1.8,23.16,23.16,0,0,0,5.09,1.91,18.93,18.93,0,0,0,10.79-.38c.28-.09.56-.2.82-.3.53-.2,1.08-.42,1.59-.67,0,0,0,0,0,0a21.15,21.15,0,0,0,3-1.77c.46-.36.92-.7,1.37-1.09s.66-.61,1-.91a1.68,1.68,0,0,0,.29-.28,1.71,1.71,0,0,0,.31-.37,18.57,18.57,0,0,0,5-10.68,49.4,49.4,0,0,0,.2-5.76V197.32a84.87,84.87,0,0,1,1.17-14.16c.18-1.17.41-2.31.64-3.45a85,85,0,0,1,22-41.75,85.84,85.84,0,0,1,25-17.91c2.11-1,4.28-1.91,6.49-2.74s4.49-1.57,6.79-2.23a84.34,84.34,0,0,1,66.18,8.8,80.27,80.27,0,0,1,7.78,5.24c2,1.51,4,3.08,5.8,4.78.94.83,1.86,1.68,2.75,2.56q2,2,3.9,4.09h0c.86.94,1.66,1.89,2.45,2.86s1.57,2,2.33,3c.36.54.74,1,1.1,1.56a81.56,81.56,0,0,1,9.18,16.72s0,0,0,0a83.56,83.56,0,0,1,5.49,21c.16,1.26.29,2.45.38,3.69v0c.2,2.45.31,4.89.34,7.36v.05c.06,3.08,0,6.17,0,9.24,0,.26,0,.48,0,.71-.06,4-.1,8,.06,12a4.87,4.87,0,0,1,0,1,2.56,2.56,0,0,1-.72,1.48,1.87,1.87,0,0,1-.41.35,2.7,2.7,0,0,1-.49.29,9.3,9.3,0,0,1-1.21.43l-8.41,2.49c-2.79.81-5.61,1.65-8.39,2.49-5.62,1.68-11.22,3.34-16.8,5.08a5.91,5.91,0,0,1-1.46.25,3.51,3.51,0,0,1-1.23,0,9.15,9.15,0,0,1-1.52-.39l-.79-.33c-6.77-3.24-13.52-6.53-20.4-9.5a5.9,5.9,0,0,1-.84-.42,4,4,0,0,1-.69-.47h0a4.28,4.28,0,0,1-.52-.5,4,4,0,0,1-.42-.56,3.48,3.48,0,0,1-.3-.62c-.09-.22-.15-.43-.23-.7a10,10,0,0,1-.14-2C276.94,211.88,276.94,206.6,276.88,201.35ZM447.19,309.73q0,3-.19,6c0,1-.07,2-.15,3-.09,1.51-.18,3-.3,4.51s-.27,3-.44,4.5c-.14,1.24-.31,2.46-.48,3.7-.37,2.45-.87,4.86-1.46,7.22-.3,1.18-.62,2.35-1,3.5s-.67,2.22-1.06,3.31a.39.39,0,0,1-.08.23c-.37,1.1-.75,2.2-1.18,3.29s-.91,2.23-1.41,3.32a80.44,80.44,0,0,1-6.92,12.44c-.61.93-1.24,1.84-1.93,2.75l-.21.31-1.79,2.34-.35.42c-.68.85-1.38,1.66-2.08,2.46l-.42.47c-.67.78-1.35,1.51-2,2.23-1.68,1.75-3.41,3.44-5.18,5-.89.79-1.79,1.55-2.7,2.27s-1.72,1.41-2.65,2c-.61.48-1.21.94-1.84,1.35-.91.63-1.81,1.26-2.71,1.84s-1.67,1.08-2.51,1.6c-.32.18-.63.4-1,.54-.6.37-1.18.71-1.79,1.05l-1,.51c-.8.42-1.59.86-2.43,1.25s-1.74.87-2.63,1.27c-.49.22-1,.42-1.46.63-.65.32-1.32.56-2,.84-2.05.85-4.18,1.59-6.32,2.26-1.16.38-2.33.72-3.5,1-2.37.62-4.76,1.18-7.22,1.59s-4.88.75-7.38,1a87.82,87.82,0,0,1-14.86,0l-.24,0c-.91-.07-1.8-.17-2.71-.29a9.69,9.69,0,0,1-1.09-.12h-.18l-2.69-.4-.45-.11c-1.09-.17-2.18-.38-3.26-.62s-2.27-.48-3.41-.79-2.13-.55-3.17-.88a1.19,1.19,0,0,1-.38-.12c-1.06-.29-2.1-.63-3.14-1a83,83,0,0,1-12-5.21l-1.59-.84c-.71-.37-1.4-.79-2.08-1.19-1-.59-2-1.21-2.91-1.84s-1.92-1.25-2.85-1.9-1.86-1.34-2.77-2.06-1.81-1.38-2.66-2.15-1.76-1.48-2.61-2.29-1.66-1.54-2.48-2.34c-1.46-1.45-2.86-2.95-4.23-4.52-.57-.65-1.13-1.34-1.68-2s-1.09-1.33-1.6-2a10.51,10.51,0,0,1-.75-1c-.56-.71-1-1.42-1.55-2.15-.65-.9-1.27-1.8-1.87-2.73-1.13-1.78-2.19-3.62-3.2-5.5-.34-.61-.67-1.22-1-1.86a16,16,0,0,1-.72-1.47s-.06-.06-.06-.09c-.41-.86-.79-1.66-1.16-2.51s-.79-1.76-1.13-2.65c-.23-.56-.45-1.14-.66-1.75s-.4-1-.57-1.48-.38-1.06-.55-1.6a13.88,13.88,0,0,1-.43-1.35c-.21-.62-.4-1.23-.58-1.86-.29-1-.59-2-.82-3-.16-.66-.34-1.32-.47-2s-.27-1.17-.37-1.75c-.41-1.91-.75-3.86-1-5.79-.1-.68-.18-1.39-.26-2.1s-.16-1.4-.2-2.12c-.23-2.32-.31-4.68-.31-7,0-17.31,0-34.62,0-52.66,4.71,2.23,9.21,4.28,13.65,6.37.75.34,1.52.71,2.28,1.08,2.09,1,4.19,2,6.27,3a9.93,9.93,0,0,0,6.27,1,12.41,12.41,0,0,0,1.75-.43c6.21-2,12.54-3.77,18.82-5.61,2.14-.64,4.3-1.26,6.43-1.91,1.61-.49,3.21-1,4.82-1.52a7.73,7.73,0,0,1,3.11-.57,2.29,2.29,0,0,1,.24.07h0a.93.93,0,0,1,.32.12,1.62,1.62,0,0,1,.23.16.31.31,0,0,1,.16.14,2.7,2.7,0,0,1,.57,1.43,4.11,4.11,0,0,1,.08.76,11.11,11.11,0,0,1,0,1.23c-.18,15.6-.12,31.19-.08,46.77,0,.82,0,1.64.1,2.41s.15,1.54.27,2.3a23.62,23.62,0,0,0,.76,3.21c.11.36.21.68.32,1a8.62,8.62,0,0,0,.38,1,9.81,9.81,0,0,0,.41.94,18.39,18.39,0,0,0,1.47,2.64,17.12,17.12,0,0,0,2.46,3c.5.45,1,.91,1.55,1.32a5.17,5.17,0,0,0,.71.53,14.07,14.07,0,0,0,1.36.87,5,5,0,0,0,.8.43c.23.12.49.25.76.37a7.71,7.71,0,0,0,1,.41l.8.3c.29.08.55.17.85.24a.24.24,0,0,0,.14.05c.29.1.57.14.86.23s.62.14,1,.2a23.52,23.52,0,0,0,4.25.36c11.6-.09,19.64-9,19.66-21.9,0-8.43,0-16.81,0-25.19,0-7.54,0-15.12-.11-22.64a10.7,10.7,0,0,1,.19-2.35A2.64,2.64,0,0,1,382,266c0-.11.08-.17.11-.26s0,0,0,0a2.1,2.1,0,0,1,.23-.38,1.2,1.2,0,0,1,.21-.25.93.93,0,0,1,.3-.26,1.92,1.92,0,0,1,.33-.2,1.88,1.88,0,0,1,.45-.2,3.49,3.49,0,0,0,.38-.12,4,4,0,0,1,.42-.07,1.21,1.21,0,0,1,.46-.07,4.1,4.1,0,0,1,.57,0h.82q6.63,0,13.3.07h1.6c13.78.08,27.57,0,41.32,0,.7,0,1.48-.05,2.16,0l.61.09a1.34,1.34,0,0,1,.44.13c.11,0,.2.08.28.11a3.1,3.1,0,0,1,.39.32,2.44,2.44,0,0,1,.54,1,3.5,3.5,0,0,1,.09.57,6.21,6.21,0,0,1,0,.92c-.13,5.11-.12,10.25-.05,15.38.05,4.61.15,9.22.23,13.83v.29c0,3.25.05,6.55,0,9.82C447.22,307.68,447.22,308.72,447.19,309.73Z" style="fill:#fff"/></svg>