<svg xmlns="http://www.w3.org/2000/svg" viewBox="0 0 512 512"><title>rsq-icon-original-youtube-b</title><rect width="512" height="512" rx="113" ry="113" style="fill:#ed2a24"/><path d="M374.71,268.66c-2.41-22-12.76-33.72-34.54-34q-83.72-1.14-167.4,0c-20.86.27-31.23,10-34,30.76-4.75,35.4-5.38,71,1,106.29,2.81,15.43,14.18,25.21,29.75,26,28.79,1.48,140.92.64,168.14.49,20-.1,34.79-11.07,37.27-35.94A450.07,450.07,0,0,0,374.71,268.66Zm-170.8,6.9H186.76v92.87H171.08v-92.7H154.66V260.91h49.25Zm43.73,92.63H234.51c-.33-2.1-.66-4.37-1.07-7.09l-2.75,1.83s-8.8,5.08-13.56,6.06c-5.18,1.11-9.22-2.28-9.25-7.68-.27-24.14-.12-48.33-.12-72.94h13.15l.15,57.25c0,3.82.06,8.37,3.36,8.37,4.38,0,9.3-4.62,9.3-9.24l.24-56.12h13.68Zm48.8,0c-4.6,2.9-10.85.76-20.12-6.06-.37,2.24-.7,4.21-1.11,6.53h-13.6v-108h13.83v32.49c1.32.07,13.78-8.14,20.63-4.89,7,3.29,7.4,10.64,7.4,17.54,0,14.3.12,28.58.08,42.9C303.51,356,303.67,363.66,296.44,368.19Zm62.22-37.46-30.33-.06v18.17c.5,6.17,3.25,6.95,9.71,6.95,6.79,0,8.08-3.95,8.08-14.12l12.54,0c0,17.69-4.31,25.82-17.58,27.4-15.16,1.77-24.49-6.17-25-22.21-.41-13.17-.37-26.42.16-39.63.49-12.7,8.36-19.75,20.75-19.89,12-.12,20.2,7.27,21.35,19.52.33,3.19.25,6.45.29,9.68C358.7,320.81,358.66,325.1,358.66,330.73Z" style="fill:#fff;fill-rule:evenodd"/><path d="M210.94,217.43H195.83l-.33-50.18s-12.35-40.27-20-59.07h16.25l3.84,13.18c2.51,9,5,18,7.93,28.64,2.25-8.38,4-15,5.8-21.71s3.6-13.35,5.41-20.12h16.4c-5.41,19.85-20.19,59.07-20.19,59.07Z" style="fill:#fff;fill-rule:evenodd"/><path d="M274.87,176.61c0-5.38.08-10.75,0-16.15a59,59,0,0,0-.66-7.23c-1.68-11.12-9.82-18-21.11-18-11.46,0-20.14,6.64-20.77,18a410.79,410.79,0,0,0,0,47.5c.66,11.2,9.7,17.86,21.15,17.69,11.08-.12,19.46-7.36,20.65-18.47.82-7.71.74-23.34.74-23.34Zm-15.18,19.77c0,4.25-2.94,8.58-6.75,8.58-3.56,0-6.08-3.83-6.08-7.89-.6-13.64-.6-27.35,0-41,0-4.41,2.72-7.6,6.37-7.6s6.42,3.94,6.42,7.9Z" style="fill:#fff;fill-rule:evenodd"/><path d="M328.62,136.17v81H315.14c-.26-1.93-.57-4.14-.93-6.7-3.72,2.41-6.86,5-10.42,6.62-8.2,3.8-16.23.28-16.38-7.83-.47-24.18-.17-48.37-.17-73.06h14.49v53.52c0,1.89,0,5.65,0,5.65,0,7.72.84,9,4.12,9s8.82-6.18,8.82-9.7c0,0,0-32.84,0-49.3v-9.2Z" style="fill:#fff;fill-rule:evenodd"/><path d="M289.12,350.33c0,2.17-2,5.52-6.7,5.52s-6.7-3.31-6.7-5.52V306.5a6.42,6.42,0,0,1,6.69-5.81c4.82,0,6.63,3.49,6.7,5.48Z" style="fill:#fff;fill-rule:evenodd"/><path d="M346.17,318.32H328.35c0-11.19,0-17.94,8.22-17.94C345.19,300.38,346.17,304.63,346.17,318.32Z" style="fill:#fff;fill-rule:evenodd"/></svg>