<svg xmlns="http://www.w3.org/2000/svg" viewBox="0 0 512 512"><title>rsq-icon-original-dropbox</title><rect width="512" height="512" rx="113" ry="113" style="fill:#edeced"/><path d="M405.31,267.06q-24.63-19.88-49.38-39.64c-6.55-5.27-6.5-5.85.17-11.22q25-20.08,49.84-40.26c6.58-5.36,6.57-5.5-.53-10.18C380,149,354.27,132.67,329.13,115.5c-7.09-4.86-11.59-4.14-17.7,1.26-16.18,14.28-33,27.85-49.38,41.93-4.41,3.8-7.49,4.43-12.42.09-17.53-15.35-35.61-30.08-53.48-45.06-1.51-1.25-2.87-2.73-5.64-2.92-1.44.81-3.39,1.83-5.2,3q-39.43,25.9-78.75,51.85c-7.13,4.73-7.08,5.45-.3,10.91,17,13.69,33.87,27.58,51.08,41,4.61,3.61,3.92,5.49-.17,8.71-17.36,13.67-34.4,27.74-51.85,41.29-5.1,3.95-5.78,6,.17,9.81q40.29,25.91,80.12,52.48c4.51,3,7.49,2.6,11.52-.86,17.15-14.71,34.81-28.8,51.76-43.69,5.26-4.62,8.61-4.48,13.6-.17,16.16,13.94,32.68,27.5,49,41.32C320,333.84,319.94,334,329,328q37.84-24.88,75.67-49.82C412.48,273.07,412.51,272.87,405.31,267.06Zm-64.95-40.61c-26,16.19-52.14,32.22-78.08,48.53-4.46,2.8-8,3.15-12.67.18-26.34-16.61-52.87-32.9-79.37-49.22-4.16-2.52-6.35-4.28-.58-7.79,27.18-16.63,54.2-33.53,81.3-50.33,1.43-.87,3-1.54,4.81-2.43a60.71,60.71,0,0,1,5.85,2.94q39.38,24.42,78.7,48.95C347.22,221.6,347.21,222.18,340.36,226.45Z" style="fill:#3976bb;fill-rule:evenodd"/><path d="M338.1,353.45c-25,15.05-50.1,30-75,45.3-5,3.09-8.84,3.35-14,.14q-38.23-23.51-76.95-46.26c-6.12-3.62-10.46-7.46-8.4-13.75,0-3.2,0-4.9,0-6.63,0-4.06,2-4.7,5.1-2.69,5.37,3.41,11,6.58,15.94,10.54s8.29,3.16,12.75-.64c17.54-15,35.48-29.47,53-44.49,4.27-3.65,6.9-3.5,11.08.07,17.12,14.7,34.68,28.88,51.77,43.6,5,4.37,9,5.71,14.54,1.05,4.66-3.9,10.13-6.88,15.27-10.25,3.18-2.09,4.69-1.43,5.2,2.57C349.94,344.64,348.94,346.92,338.1,353.45Z" style="fill:#3976bb;fill-rule:evenodd"/></svg>