<svg xmlns="http://www.w3.org/2000/svg" viewBox="0 0 512 512"><title>rsq-icon-original-skype</title><rect width="512" height="512" rx="113" ry="113" style="fill:#36a8df"/><path d="M396.28,300.57c-3.62-12.52-2.85-24.09-1.7-36.25a59.22,59.22,0,0,0,.54-9c-2.26-39.9-16.57-74.21-47.21-100.83-30.32-26.33-65.54-37.29-105.4-33.24a24.62,24.62,0,0,1-14.12-2.39c-41.18-20.27-89.44-3.69-108.38,37.09-9.85,21.25-10,42.77-1.38,64.43,2.06,5.19,4.93,10.17,3.61,16.08-1.6,7.13-1.12,14.38-1.25,22.12.25,5.75-.19,12,.83,18.3,5.55,34.23,20.9,63,47.55,85.37,30,25.18,64.66,35.16,103.36,31.47,6.24-.59,11.91-.41,17.69,2.06a73.44,73.44,0,0,0,42.51,4.9C380.72,392.23,409.82,347.06,396.28,300.57Zm-92.81,42c-28.86,12.37-58.56,12.73-87.92,2.11-18.69-6.76-31.92-20.09-37.54-39.57-4.64-16.09,5.18-28.13,21.18-26.8,6.81.58,11.8,4,15,10,2.79,5.09,5.39,10.32,8.22,15.41,5,9,13,13.69,22.9,15.52,13,2.42,25.6,1.14,37.17-5.6,15-8.72,14.64-26.18-.5-34.61-9.32-5.18-19.78-6.75-30-9.06a280.12,280.12,0,0,1-34.32-9.61c-13.08-4.75-24.45-12-31.52-24.2-12.83-22.08-4.29-50.41,18.53-63.32,14.42-8.17,31.26-12,59.84-12,12.9.28,32.09,3.86,48.48,16.86a42.28,42.28,0,0,1,15.56,24.19c2.17,9.49-2.39,18.9-10.83,22.67-9.51,4.22-18.48,1.82-24.68-6.56-4.3-5.78-7.8-12.05-12.39-17.7-9.84-12.12-42.48-11.37-53.79-.18-6.49,6.4-6.42,14.08.48,20.08,5.79,5,12.9,7.41,20.17,9.21,17.87,4.44,36,7.82,53.28,14.4,21.32,8.11,35.79,21.84,37,45.93C338.94,312.63,326.08,332.88,303.47,342.53Z" style="fill:#fff;fill-rule:evenodd"/></svg>