<svg xmlns="http://www.w3.org/2000/svg" viewBox="0 0 512 512"><title>rsq-icon-original-ustream</title><rect width="512" height="512" rx="113" ry="113" style="fill:#4f7cbe"/><path d="M378.2,128.56c-.1,6.92-.1,13.94-.1,21-.07,22.49,0,45.07,0,67.56v47.32c0,12.31,0,24.72-.07,37.05v.09c0,1.88-.09,3.77-.19,5.57s-.18,3.78-.35,5.66c-.19,2.71-.46,5.41-.91,8.09a23.06,23.06,0,0,1-.54,3.52c-.36,2.6-.9,5.22-1.53,7.82a84,84,0,0,1-2.24,8.19c-.55,1.8-1.09,3.59-1.72,5.38-5.66,15.75-14.3,28.62-25.71,38.6-1,.91-2,1.71-3,2.52a95.83,95.83,0,0,1-28.6,15.46c-38.42,13.24-77.18,13.42-115.41-.44a106.2,106.2,0,0,1-13.31-5.84c-1.62-.82-3.15-1.7-4.67-2.61-1.8-1.07-3.59-2.16-5.31-3.42s-3.34-2.43-4.95-3.68a63.14,63.14,0,0,1-6.74-6.13,90.45,90.45,0,0,1-22-36.51c-.71-2.07-1.35-4.14-1.89-6.29-.36-1-.63-2.08-.9-3.16-.45-2.16-1-4.41-1.35-6.66-.81-4.13-1.44-8.36-1.89-12.6-.18-1.43-.27-2.78-.37-4.23-.26-2.77-.44-5.65-.44-8.44-.18-2.89-.18-5.68-.18-8.55q0-82.45-.09-165a13.07,13.07,0,0,1,.09-2,3.72,3.72,0,0,1,.63-1.8,2.51,2.51,0,0,1,1.27-1c.09,0,.18-.09.26-.09a8.38,8.38,0,0,1,2.79-.27c16.56.17,33.12.17,49.66.09,5.58,0,11.07-.09,16.55-.09,4.5-.09,5.31,1.35,5.31,5.39-.18,53.54-.09,104.62-.18,158.05,0,5,.18,10,.54,14.94.18,1.16.27,2.42.45,3.69.09.53.09,1.18.18,1.8.28,1.89.64,3.68,1,5.48.09.64.27,1.26.35,1.89a10.16,10.16,0,0,1,.46,1.81,53.51,53.51,0,0,0,2.7,7.73,6.5,6.5,0,0,0,.63,1.44,42.36,42.36,0,0,0,2.16,4,20.42,20.42,0,0,0,1.62,2.45,35.08,35.08,0,0,0,9.27,8.89,41,41,0,0,0,3.77,2.24,47.64,47.64,0,0,0,13.59,4.24c.9.09,1.8.26,2.7.36,11.25,1.34,21.76,0,30.95-5.67a33,33,0,0,0,3.78-2.61,37.83,37.83,0,0,0,3.6-3.07c.54-.53,1.16-1.17,1.7-1.8a33.88,33.88,0,0,0,4.68-6.2c3.86-6.65,5.39-14.12,6.57-21.85.09-1.09.26-2.16.36-3.32,0-.28.09-.55.09-.82.09-.64.09-1.36.18-2.09s.09-1.33.09-2.05a12.9,12.9,0,0,0,.09-1.89c0-.8.09-1.54.09-2.34V209.07q0-40.08-.09-80.15V127.4a1.18,1.18,0,0,0,.09-.55c.09-.27.09-.36.18-.62,0-.11.08-.28.08-.46s.18-.27.27-.46.1-.17.18-.35a1.07,1.07,0,0,1,.37-.27,1.66,1.66,0,0,1,.62-.46,7.88,7.88,0,0,1,3.61-.54c22,.17,44.16.17,66.2,0C377,123.7,378.2,124.6,378.2,128.56Z" style="fill:#fff;fill-rule:evenodd"/></svg>