<svg xmlns="http://www.w3.org/2000/svg" viewBox="0 0 512 512"><title>rsq-icon-original-picasa</title><rect width="512" height="512" rx="113" ry="113" style="fill:#8967a2"/><path d="M393.55,320c-2,3.8-3.55,7.14-5.5,10.18-34.31,53.62-83.34,78.48-146.69,73.34-14.84-1.2-29.38-6.61-43.93-10.54-2-.53-4.61-3.62-4.64-5.56-.29-22-.11-43.88,0-65.83,0-.39.38-.79.72-1.59Z" style="fill:#fff;fill-rule:evenodd"/><path d="M244.27,174.31C199.47,214.88,155.06,255.11,110,296c-4.73-16.75-6.88-32.85-5.39-49.2,4.75-52.57,30.42-92,75.53-119.1,5.58-3.38,9-2.83,13.78,1.59C210.27,144.47,227.18,159.15,244.27,174.31Z" style="fill:#fff;fill-rule:evenodd"/><path d="M407.82,263.35c-.37,12.39-4,24.72-6.65,37-.41,2-3.29,4.81-5.07,4.84-20.3.34-40.61.22-61.69.22V129.79a23,23,0,0,1,4.43,1.88C385.57,163.1,409.57,206.73,407.82,263.35Z" style="fill:#fff;fill-rule:evenodd"/><path d="M319.64,218.4a25.18,25.18,0,0,1-.71,3.27c-39.26-34.87-77.77-69-117-103.82a152.4,152.4,0,0,1,112.35,1.43c2.32,1,5.14,4.36,5.14,6.69C319.79,156.77,319.67,187.57,319.64,218.4Z" style="fill:#fff;fill-rule:evenodd"/><path d="M178.08,254.75V382.59a24.57,24.57,0,0,1-4.58-1.8c-25.19-16.16-44.2-37.78-56.37-65.14-.94-2.07-.55-6.25.92-7.63,19.16-17.76,38.63-35.22,58-52.73C176.35,255,176.88,255.06,178.08,254.75Z" style="fill:#fff;fill-rule:evenodd"/></svg>