<svg xmlns="http://www.w3.org/2000/svg" viewBox="0 0 512 512"><title>rsq-icon-original-reddit-b</title><rect width="512" height="512" rx="113" ry="113" style="fill:#edeced"/><path d="M411.15,229.11a37.5,37.5,0,0,0-52-7.1c-2.13,1.58-3.4,1.36-5.46.14-20.71-12.45-43.19-19.74-67-23.05-7.29-1-14.65-1.65-22.27-2.49,7-20,14-39.88,21-59.77.73.09,1.23.09,1.69.19,15.33,3.64,30.63,7.44,46,10.85,4,.88,5.46,2.55,6.07,6.55,2.55,16.76,19,28.19,35.55,25.14a30.87,30.87,0,1,0-32.64-44.79c-.45.84-1,1.64-1.51,2.52l-63-15c-8.9,25.26-17.58,49.92-26.24,74.48-34.57,1.12-66.87,8.68-96.3,26.78-1-.75-2-1.47-3.06-2.14-12.49-8.19-25.65-9.3-38.94-2.47-24.5,12.62-27.48,46.07-5.87,63.25,1.12.88,2.36,2.7,2.25,3.92a71.06,71.06,0,0,0,10.37,46.4C131.34,351.08,147.82,364,167,373.68c30.17,15.26,62.36,21,96,19.94a197.83,197.83,0,0,0,61.92-11.46C347.7,373.88,368.25,361.93,384,343c12.85-15.43,19.73-33,18-53.26-.36-4.19.92-6.24,3.88-8.73A37.41,37.41,0,0,0,411.15,229.11Zm-41.78-98.77c10.13-.12,18.86,8.63,18.81,18.89a19.1,19.1,0,0,1-18.64,18.7,18.79,18.79,0,0,1-.17-37.59ZM112.72,270.4c-9.35-7.51-10.53-23.27-2.32-33.84,8.46-10.84,24.73-12.6,33.27-5.73-5.83,6.09-12.17,11.77-17.34,18.4S117.2,263.36,112.72,270.4ZM372,338.76c-17.5,18.58-39.4,29.29-63.49,36a186.51,186.51,0,0,1-53,6.89c-33-.2-64.38-6.83-92.94-24.07-11.41-6.89-21.47-15.43-29.23-26.36-17.45-24.43-16.14-53.11,3.15-76,14.95-17.75,34.3-28.68,55.83-36.08a194,194,0,0,1,75.4-9.85c24.14,1.43,47.3,6.63,69.1,17.18,15.62,7.55,29.59,17.34,40.11,31.4C396.46,284,394.47,314.94,372,338.76Zm26-67.43c-6.31-16.34-17.22-29.12-30.72-39.91,10.38-8.11,26.53-5.29,34.82,6C409.95,247.84,408,264.3,398.07,271.33Z" style="fill:#262526;fill-rule:evenodd"/><path d="M232.24,278C232.11,291,222.06,300.8,209,300.77A22.27,22.27,0,0,1,186.33,278a22.86,22.86,0,0,1,22.85-23.18A23.32,23.32,0,0,1,232.24,278Z" style="fill:#ef4923;fill-rule:evenodd"/><path d="M328.51,277.73a22.59,22.59,0,0,1-22.86,23A22.85,22.85,0,0,1,282.43,278a23,23,0,0,1,46.08-.23Z" style="fill:#ef4923;fill-rule:evenodd"/><path d="M309.33,341.25c-8.74,7.67-19.16,12-30.41,14.24-7.81,1.52-15.83,2.09-23.75,3.14-14.48-.54-28.35-2.86-41.13-9.74a69.3,69.3,0,0,1-10.64-7.31c-3.45-2.8-3.68-6.65-1.12-9.37s5.84-2.44,9.12.44c8,7.07,17.77,10.52,28.12,12.11,17.23,2.66,34.22,1.81,50.35-5.51a75.82,75.82,0,0,0,11.56-7.15c3.24-2.27,6.61-2.36,8.93.3S312.31,338.67,309.33,341.25Z" style="fill:#262526;fill-rule:evenodd"/></svg>