<svg xmlns="http://www.w3.org/2000/svg" viewBox="0 0 512 512"><title>rsq-icon-original-google</title><rect width="512" height="512" rx="113" ry="113" style="fill:#edeced"/><path d="M376.11,341.89a126.51,126.51,0,0,1-22.29,26.2l-13.13-10.25c-3.85-3-7.68-6.07-11.55-9.06-5.71-4.42-11.44-8.8-17.15-13.21a23.47,23.47,0,0,1-2.27-1.82,77.59,77.59,0,0,0,26.51-31.36c2.47-5.21,3.87-10.93,6.09-17.24H259.5v-49.6H396.1C402.71,272.45,395.87,311.15,376.11,341.89Z" style="fill:#567ebf;fill-rule:evenodd"/><path d="M340.69,357.84l13.13,10.25C336.05,384,313.06,395.32,285,399.62c-47,7.19-89-4-124.27-36a145.13,145.13,0,0,1-32.15-41.41,9.82,9.82,0,0,0,1.36-.82c7.63-5.76,15.05-11.79,22.71-17.53,7.13-5.35,14-11,21-16.51,7.73,22.74,24.3,41.21,48.74,52.78,25.78,12.2,61.06,11.62,87.29-6.35a23.47,23.47,0,0,0,2.27,1.82c5.71,4.41,11.44,8.79,17.15,13.21C333,351.77,336.84,354.82,340.69,357.84Z" style="fill:#36a753;fill-rule:evenodd"/><path d="M127.29,192.46a16.73,16.73,0,0,1,3.78,2.38c7.56,5.83,15.14,11.62,22.6,17.57,5.16,4.11,10.55,7.92,15.53,12.29,1.1,1,2.33,1.83,3.52,2.73a86.58,86.58,0,0,0-3.32,16c-1.75,15.74-.25,30.56,4.29,43.9-7,5.54-13.92,11.16-21,16.51-7.66,5.74-15.08,11.77-22.71,17.53a5.22,5.22,0,0,1-.49.33,5.36,5.36,0,0,1-.52.3l-.35.19c-10.78-21.08-15.36-44.67-15-70.53.14-11.14,1.82-21.54,4.43-33.1C120.76,206.14,127.29,192.46,127.29,192.46Z" style="fill:#f8bb18;fill-rule:evenodd"/><path d="M356.53,148.37l-1.8,1.73c-12.5,12-24.81,23.84-36.14,34.75-11.2-5.85-21.12-12.77-32.14-16.53-47.56-16.23-99.4,12.68-113.73,59.11-.89-.67-1.81-1.33-2.67-2-.29-.23-.57-.47-.85-.71-5-4.37-10.37-8.18-15.53-12.29-7.46-5.95-15-11.74-22.6-17.57a17.47,17.47,0,0,0-3.78-2.38s11.46-26.58,36.29-46.69c34.8-28.18,73.76-40,118.06-33.82C310.38,115.94,335.08,128.43,356.53,148.37Z" style="fill:#ea4535;fill-rule:evenodd"/></svg>