<svg xmlns="http://www.w3.org/2000/svg" viewBox="0 0 512 512"><title>rsq-icon-original-pinterest</title><rect width="512" height="512" rx="113" ry="113" style="fill:#cd2027"/><path d="M368.12,239.47c-4.18,20.26-12.2,38.82-26.06,54.49-17.38,19.63-39.29,29.56-65.52,28.58C261,322,247.51,316,238,303a7.35,7.35,0,0,0-1-.89c-1.83,7.25-3.43,14.28-5.41,21.2-3.65,12.93-6.78,26.08-11.47,38.63-5.65,15.13-14.9,28.42-24.78,41.15-.85,1.08-2.44,1.63-3.67,2.39-.66-1.32-1.73-2.58-1.93-4-3.76-26.05-2.77-51.76,4-77.39,6.67-25.14,12.17-50.57,18-75.9a11.83,11.83,0,0,0-.48-6.11c-5.66-17.21-6.44-34.26,2.17-50.75,5.45-10.44,13.74-17.45,26.11-17.9,12.66-.45,21.53,7.39,23.31,20,1.46,10.06-1.14,19.55-3.77,29-3.25,11.65-6.61,23.27-10.25,34.8-7.12,22.55,12.17,40.51,34.95,34.93,9.89-2.41,17.55-8.23,23.88-15.91,9.48-11.53,14.85-25,18.12-39.42,3.64-15.86,5.64-32,2.75-48.16-4.69-26.09-20.36-42.8-45.87-49.41-27.07-7-53.21-4-76,13-26.36,19.78-36.6,46.89-31.49,79.51a39.85,39.85,0,0,0,9.93,20.17,9.9,9.9,0,0,1,2.24,10.3c-1.19,3.9-2,7.9-3.06,11.82-1.6,6-4.6,7.43-10.35,4.84-13.25-5.91-22.2-16.09-27.15-29.42-12.25-33-7.51-64.21,12.29-92.93,18.83-27.32,45.74-42.2,78-47.67,24-4.05,47.71-3.18,70.45,6.14,33,13.52,54.65,37.24,62.25,72.55C373.59,204.89,371.68,222.3,368.12,239.47Z" style="fill:#fff;fill-rule:evenodd"/></svg>