<svg xmlns="http://www.w3.org/2000/svg" viewBox="0 0 512 512"><title>rsq-icon-original-behance</title><rect width="512" height="512" rx="113" ry="113" style="fill:#262526"/><path d="M306.9,164c0-2.69.33-3,3.07-3h79.78c3.34,0,3.55.2,3.55,3.49v18.61c0,2.73-.37,3.07-3.09,3.07H310c-2.75,0-3.07-.38-3.07-3.09C306.87,176.77,306.87,170.4,306.9,164Z" style="fill:#fff;fill-rule:evenodd"/><path d="M258,269c-3.59-9.47-9.48-17-18.9-21.24a36.5,36.5,0,0,0-14.33-3.11c.48-.42.53-.59.65-.59.6-.2,1.14-.25,1.74-.43,12.36-3.35,21.23-10.62,25.5-23,3-8.57,3-17.4,1.79-26.21-1.74-13.32-7.26-24.72-17.93-33.24a56.5,56.5,0,0,0-35.75-12.48c-36.9-.36-73.79-.12-110.75-.12a5,5,0,0,0-.9,0c-1.85-.12-2.87.71-2.82,2.7V356.43c0,1.74.91,2.52,2.65,2.46h2.63q51.66.09,103.25,0a81.35,81.35,0,0,0,35.82-7.73c11.39-5.46,20.27-13.56,25.85-25.14a64.56,64.56,0,0,0,5.76-23.93C263,290.74,262,279.7,258,269ZM134,188.45c0-2.16.9-2.82,2.94-2.82,9.84.07,19.61,0,29.46,0v.07c9.29,0,18.59-.07,27.89,0,6.54,0,11.94,3.48,14.22,9.65a40.22,40.22,0,0,1-.47,28.37c-2.23,6-7.08,8.94-13.26,9-19.31.17-38.7.05-58,.12-2,0-2.76-.84-2.76-2.76ZM216.29,306.4c-2.63,8-8.28,12.71-16.43,14.52a36.74,36.74,0,0,1-8.52,1c-17.82-.05-35.57,0-53.38,0-3.79,0-3.9-.12-3.9-3.84V268.66c0-3.48.24-3.67,3.66-3.67h55c13.32,0,21.89,6.84,24.48,19.93C218.51,292.06,218.57,299.38,216.29,306.4Z" style="fill:#fff;fill-rule:evenodd"/><path d="M419.36,244.48c-7.57-19.74-21.18-33.24-41.7-39.06-16.25-4.62-32.8-4.55-49.24-.66-18.13,4.26-32.76,14-42.6,29.82-14.88,24.06-18.79,50-10.86,77.22,7.61,26.09,25,42.28,51.41,48.65a116.15,116.15,0,0,0,40.42,2.16c12.12-1.32,23.7-4.45,34.09-10.92,15-9.49,22.31-23.52,23-41.16.12-1.69-.37-2.89-2.4-2.89H389.78a2.44,2.44,0,0,0-2.71,2.28c-1.61,9.13-7.42,14.59-15.77,17.52a53,53,0,0,1-26,2.28c-17.46-2.57-28.62-15-29.15-32.39-.18-3.91-.07-4,3.77-4H422.12c1.91,0,3.3-.32,3.41-2.65C426.2,274.9,425.18,259.29,419.36,244.48Zm-40.49,21H319c-3.35,0-3.58-.3-2.75-3.6,3.72-13.14,10.93-23.28,24.48-27.52a38.89,38.89,0,0,1,24.91.29c11.09,4,16.43,12.84,18.71,23.87C385.89,265.42,385.77,265.48,378.87,265.48Z" style="fill:#fff;fill-rule:evenodd"/></svg>