<svg xmlns="http://www.w3.org/2000/svg" viewBox="0 0 512 512"><title>rsq-icon-original-app-store-b</title><rect width="512" height="512" rx="113" ry="113" style="fill:#427cbe"/><polygon points="322.7 303.88 193.02 303.88 224.99 249.1 293.35 249.38 322.7 303.88" style="fill:#fff;fill-rule:evenodd"/><path d="M225.93,221.29c-24.1,41.86-48,83.27-71.81,124.75-2.27.18-2.83.41-3.2.25-30.91-13.45-30.77-13.4-14.21-42.09C156,270.9,175,237.52,194.7,203.12,205,209.15,214.76,214.77,225.93,221.29Z" style="fill:#fff;fill-rule:evenodd"/><path d="M347.61,266.86c-8.06,4.4-15.39,8.42-24.27,13.33C289.93,221.11,264,160.07,237.46,99.35l7.65-4C281,150.82,316.71,206.36,347.61,266.86Z" style="fill:#fff;fill-rule:evenodd"/><polygon points="411.65 249.05 411.89 303.61 379.58 303.9 352.56 249.05 411.65 249.05" style="fill:#fff;fill-rule:evenodd"/><polygon points="154.14 249.12 121.44 303.61 100.39 303.32 100.11 249.12 154.14 249.12" style="fill:#fff;fill-rule:evenodd"/><path d="M399.38,394.32c-8.58,4.8-15.59,1.82-19.4-6.34-8.52-18.07-16.16-36.61-24.45-55.56,6-3.36,11.05-6.14,17.19-9.57,11.2,17.35,22.21,34.13,32.89,51.06C411.28,382.82,407.87,389.6,399.38,394.32Z" style="fill:#fff;fill-rule:evenodd"/><path d="M247.47,184.18c-5.58,9.72-10.46,18.26-15.9,27.76-10.69-6.19-20.66-12-31.55-18.29,5.5-9.63,10.38-18.1,15.87-27.73C226.63,172.1,236.66,177.92,247.47,184.18Z" style="fill:#fff;fill-rule:evenodd"/><path d="M368.14,310.84c-6.64,3.7-12.51,7-19.59,11-6.39-10.59-12.41-20.56-19.13-31.63,7.49-4.21,14.77-8.31,22.66-12.76C357.36,288.38,362.27,298.6,368.14,310.84Z" style="fill:#fff;fill-rule:evenodd"/><path d="M142.46,355.52c-11.38,11.57-22.33,22.76-34.58,35.18,3.87-17,7.32-32.23,11.1-49C127.95,346.93,135.32,351.32,142.46,355.52Z" style="fill:#fff;fill-rule:evenodd"/><path d="M250.15,173.45c-9.38-5.57-17.83-10.61-27-16.07,6.22-8.65,12.8-11.46,21.29-5.59C251.7,156.76,257.16,162.55,250.15,173.45Z" style="fill:#fff;fill-rule:evenodd"/></svg>