<svg xmlns="http://www.w3.org/2000/svg" xmlns:xlink="http://www.w3.org/1999/xlink" viewBox="0 0 512 512"><defs><linearGradient id="a" x1="246" y1="402.49" x2="246" y2="109.51" gradientUnits="userSpaceOnUse"><stop offset="0" stop-color="#00a5df"/><stop offset="1" stop-color="#ef5586"/></linearGradient></defs><title>rsq-icon-original-itunes-b</title><rect width="512" height="512" rx="113" ry="113" style="fill:#edeced"/><path d="M366.23,335.3c0,20.87-12.48,33.45-29.35,42.14-17.42,9-35.62,11.2-52.85-.56-14.32-9.77-16.63-26.62-6.22-42.13,11.79-17.57,30-23.76,49.7-27.06,3.83-.62,7.82-.47,12.74-.76V178.23l-119.48,20.5c0,4.86,0,9.61,0,14.31,0,45.59-1.74,91.26.37,136.75,1.58,34.07-44.15,63.68-76.65,48.72-18.17-8.37-24-26.68-13.53-44.2,10.64-17.88,28.3-24.47,47.47-28.17,5.11-1,10.39-1.28,16.55-2V135c56.78-8.44,112.87-16.8,171.08-25.45V124.2Q366.16,229.71,366.23,335.3Z" style="fill-rule:evenodd;fill:url(#a)"/></svg>