<svg xmlns="http://www.w3.org/2000/svg" viewBox="0 0 512 512"><title>rsq-icon-original-shopify</title><rect width="512" height="512" rx="113" ry="113" style="fill:#78b556"/><path d="M386.77,380.43q-15.26-102-30.3-204c-2.28-15.25-2.45-15.28-18-15.63-6.83-.17-12.89-1.57-17.31-7.49-2.21-3-5.4-5.2-7.82-8-3.08-3.56-6.93-4.87-11-3-6,2.67-8.32.11-10.64-5.15-5.2-11.82-13.19-20.71-27.1-22.08a6.06,6.06,0,0,1-3.8-1.75c-4.65-4.82-10.24-6.92-15.61-5.89-15.58-.53-26.1,6.79-35,16.72-12.66,14.07-19.84,31.14-24.85,49.08-1.17,4.15-3.13,6.29-7.21,7.44-8,2.28-15.94,5-23.92,7.47-4,1.24-6.27,3.7-6.79,8-.86,7.24-2,14.44-2.9,21.66q-6.74,51.84-13.4,103.67c-1.9,14.64-3.91,29.24-5.75,43.88-.54,4.36-.81,8.22,5.44,9.37C182,384,233.22,393.75,284.44,403.28c4.67.89,9.35,2.28,14.23,1.21q42-9.11,83.93-18.13C385.92,385.67,387.35,384.21,386.77,380.43ZM250.57,132.92c5.1-4,6.75-3.3,8,2.87,3.88,18.63,3.66,19-14.49,24.26-3.61,1-7.1,2.86-11.46,2.94C236,150.93,240.9,140.46,250.57,132.92Zm-52.45,38c5.49-16.35,12.27-32,25.66-43.63,6.46-5.62,13.75-9.32,23.44-8.73-1.62,3.16-4,4.12-5.89,5.71-11.55,10-17.5,23.17-20.87,37.61-1.07,4.61-3,7.16-7.72,8.06-4,.78-7.83,2.38-11.74,3.57C198.65,174.22,197,174.12,198.12,170.87Zm63.47,47.47c-2.84,7.67-5.45,15.46-7.8,23.27-1.2,3.93-2.84,4.33-6.56,3-7.92-2.81-16.05-4.69-24.56-2.44-5.79,1.53-10,4.53-11.35,10.65-1.3,5.75,1.74,9.7,5.65,12.94,5.44,4.58,11.26,8.68,16.82,13.15a46.43,46.43,0,0,1,2.78,70.39c-7.36,6.83-16.83,10.21-30.71,10.16a59.43,59.43,0,0,1-36.93-14.41c-2.77-2.41-3.63-4.81-2.3-8.39,2-5.34,3.43-10.85,5.07-16.31.83-2.77,2.19-3.3,4.62-1.54a72.77,72.77,0,0,0,12.88,7.55,26.79,26.79,0,0,0,11.36,2.49c9.49-.09,14.82-7.74,11.62-16.75a25.46,25.46,0,0,0-7.78-10.65,57.28,57.28,0,0,0-5.4-4.37c-32-21.14-18.76-65.43,6.5-79.44,16.52-9.15,34-10.69,52.21-6.51C262,212.13,263.17,214.07,261.59,218.35Zm21.95-72.41c-1,4.33-7.85,4.2-8.7,4.46-2.71.51-3-.88-3.25-2.84-.69-5.62-1.41-11.22-2.14-16.85-.47-2.4.62-2.71,2.63-1.93C275.94,130.27,284.41,142.12,283.54,145.94Z" style="fill:#fff;fill-rule:evenodd"/></svg>